<svg width="1370" height="1289" viewBox="0 0 1370 1289" fill="none" xmlns="http://www.w3.org/2000/svg">
<path d="M627.7 346.5C830.7 102.5 1369.7 0 1369.7 0V1145C1369.7 1145 1186.36 1408.63 985.2 1102.5C808.87 834.159 424.7 590.5 627.7 346.5Z" fill="#7E8CAF"/>
<path d="M452.134 663.738C481.228 753.005 588.672 769.64 432.83 807.812C339.363 838.276 240.006 790.607 210.912 701.34C181.817 612.074 234.002 515.013 327.469 484.549C420.936 454.085 423.039 574.471 452.134 663.738Z" fill="#F1B2B2"/>
<path d="M1006 1198C1006 1235.56 922.884 1198 884.5 1198C846.116 1198 815 1167.56 815 1130C815 1092.44 846.116 1062 884.5 1062C922.884 1062 1006 1160.44 1006 1198Z" fill="#E3857C"/>
<ellipse cx="674.5" cy="953" rx="24.5" ry="23" fill="#7E8CAF"/>
<ellipse cx="1081.5" cy="1266" rx="24.5" ry="23" fill="#7E8CAF"/>
<ellipse cx="24.5" cy="1134" rx="24.5" ry="23" fill="#7E8CAF"/>
<ellipse cx="78.5" cy="1160.5" rx="14.5" ry="13.5" fill="#F1B2B2"/>
</svg>
