<svg width="52" height="65" viewBox="0 0 52 65" fill="none" xmlns="http://www.w3.org/2000/svg">
<path d="M49.9631 19.3452C49.9631 30.0293 28.3172 39.0774 17.6222 39.0774C6.92722 39.0774 30.5978 30.0293 30.5978 19.3452C30.5978 8.66116 4.06794 0 30.5981 0C41.2931 0 49.9631 8.66116 49.9631 19.3452Z" fill="#7D8AAD"/>
<path d="M0 11.8006L11.2317 0.967255L16.8475 3.09523L13.5555 51.6518L11.2317 65L0 11.8006Z" fill="#45496A"/>
<path d="M51.8979 50.2976C53.6408 64.6131 32.5772 62.4851 21.8821 62.4851C11.1871 62.4851 34.5785 54.0717 34.5785 43.3876C34.5785 32.7036 2.82044 46.2894 29.5432 31.0067C40.2382 31.0067 51.8979 39.6136 51.8979 50.2976Z" fill="#7D8AAD"/>
</svg>
