<svg width="52" height="65" viewBox="0 0 52 65" fill="none" xmlns="http://www.w3.org/2000/svg">
<path d="M49.963 19.3452C49.963 30.0293 28.3171 39.0774 17.6221 39.0774C6.92715 39.0774 30.5978 30.0293 30.5978 19.3452C30.5978 8.66116 4.06788 0 30.598 0C41.293 0 49.963 8.66116 49.963 19.3452Z" fill="#FFE7E3"/>
<path d="M0 11.8006L11.2317 0.967255L16.8475 3.09523L13.5555 51.6518L11.2317 65L0 11.8006Z" fill="#E3857C"/>
<path d="M51.898 50.2976C53.6408 64.6131 32.5772 62.4851 21.8822 62.4851C11.1872 62.4851 34.5786 54.0717 34.5786 43.3876C34.5786 32.7036 2.82049 46.2894 29.5433 31.0067C40.2383 31.0067 51.898 39.6136 51.898 50.2976Z" fill="#FFE7E3"/>
</svg>
