<svg width="436" height="267" viewBox="0 0 436 267" fill="none" xmlns="http://www.w3.org/2000/svg">
<path d="M349.884 34.8411L351.283 24.6319C351.529 22.8349 352.161 21.0994 353.143 19.5247C354.125 17.95 355.438 16.567 357.007 15.4546C358.577 14.3421 360.371 13.5221 362.289 13.0414C364.206 12.5607 366.209 12.4286 368.182 12.6528C370.156 12.877 372.061 13.453 373.79 14.348C375.519 15.243 377.038 16.4393 378.259 17.8687C379.48 19.2982 380.38 20.9326 380.907 22.6788C381.434 24.4249 381.578 26.2485 381.331 28.0454L379.932 38.2546C379.865 38.7417 379.588 39.1846 379.163 39.4862C378.737 39.7877 378.198 39.9232 377.662 39.863L351.651 36.908C351.116 36.8467 350.629 36.5946 350.298 36.2071C349.967 35.8197 349.818 35.3284 349.884 34.8411Z" fill="#2F2E41"/>
<path d="M362.344 37.8869C368.475 37.8869 373.445 33.3616 373.445 27.7793C373.445 22.197 368.475 17.6716 362.344 17.6716C356.214 17.6716 351.244 22.197 351.244 27.7793C351.244 33.3616 356.214 37.8869 362.344 37.8869Z" fill="#FFB8B8"/>
<path d="M347.617 25.045C348.014 22.1763 349.644 19.568 352.15 17.7923C354.656 16.0167 357.833 15.2186 360.984 15.5734L363.227 15.8281C366.377 16.1893 369.242 17.6737 371.192 19.9555C373.142 22.2374 374.018 25.1304 373.629 27.9999L373.601 28.2041L368.862 27.6658L367.81 23.361L366.922 27.4454L364.473 27.1672L363.943 24.9952L363.495 27.056L347.589 25.2492L347.617 25.045Z" fill="#2F2E41"/>
<path d="M308.053 63.8351C308.392 64.4417 308.873 64.9731 309.462 65.3919C310.052 65.8108 310.734 66.107 311.463 66.2595C312.191 66.4121 312.948 66.4173 313.679 66.2749C314.41 66.1325 315.098 65.8458 315.694 65.4352L325.776 70.8131L330.859 66.0312L316.504 58.6186C315.68 57.7524 314.536 57.1915 313.288 57.0422C312.04 56.8929 310.776 57.1656 309.734 57.8086C308.692 58.4516 307.946 59.4203 307.636 60.531C307.326 61.6417 307.474 62.8173 308.053 63.8351Z" fill="#FFB8B8"/>
<path d="M341.097 73.4987C333.66 73.4987 320.573 70.4673 319.849 70.2979L319.62 70.2445L321.679 60.749L341.668 64.3439L352.527 50.4199L364.994 49.2659L364.646 49.6829C364.484 49.8771 348.413 69.1407 345.912 72.3722C345.281 73.1875 343.478 73.4987 341.097 73.4987Z" fill="#3F3D56"/>
<path d="M343.09 109.138L342.793 109.008C342.73 108.981 336.411 106.182 333.138 100.719C329.881 95.2815 345.129 72.2161 346.195 70.6157L346.211 63.2908L351.696 49.8064L358.691 46.2064L352.685 58.9663L343.09 109.138Z" fill="#3F3D56"/>
<path d="M336.083 187.866L329.397 187.865L326.217 164.386L336.084 164.386L336.083 187.866Z" fill="#FFB8B8"/>
<path d="M337.788 193.767L316.231 193.766V193.518C316.231 191.492 317.116 189.548 318.689 188.116C320.262 186.683 322.396 185.878 324.622 185.878H324.622L337.788 185.878L337.788 193.767Z" fill="#2F2E41"/>
<path d="M407.891 182.531L401.538 184.427L390.486 163.016L399.863 160.219L407.891 182.531Z" fill="#FFB8B8"/>
<path d="M411.529 187.655L391.044 193.767L390.959 193.531C390.267 191.605 390.442 189.508 391.447 187.701C392.453 185.893 394.205 184.523 396.32 183.892L396.32 183.892L408.832 180.159L411.529 187.655Z" fill="#2F2E41"/>
<path d="M394.947 178.693L375.889 149.721L359.801 118.769L345.324 146.11L339.572 181.522L319.403 181.777L319.483 181.49L350.348 69.8177L374.521 73.1061L373.421 87.6352L374.076 88.4838C379.537 95.5474 385.183 102.851 381.944 110.723L391.124 135.543L411.445 176.872L394.947 178.693Z" fill="#2F2E41"/>
<path d="M351.452 94.0203C347.95 94.0203 343.953 90.3785 346.027 84.1609L345.892 84.0724L350.872 64.0389C346.526 58.3797 352.256 53.7091 352.793 53.2919L355.528 48.8092L367.595 41.8406L373.701 88.0343L373.611 88.113C369.201 91.9549 354.391 94.0203 351.452 94.0203Z" fill="#F1B2B2"/>
<path d="M376.166 104.444C375.686 104.451 375.208 104.405 374.74 104.307C374.271 104.199 373.511 103.655 372.337 100.174C367.67 86.3366 362.159 44.7003 366.163 40.6259L366.254 40.5325L372.828 41.5301C373.374 41.1629 376.242 39.3402 378.888 39.6572C379.433 39.7196 379.957 39.883 380.43 40.1374C380.903 40.3918 381.313 40.7318 381.636 41.1362L381.681 41.1902L383.775 68.3191L391.447 100.245L391.264 100.321C390.817 100.506 381.237 104.444 376.166 104.444Z" fill="#3F3D56"/>
<path d="M371.745 93.8405C372.492 93.8178 373.225 93.6462 373.891 93.3379C374.557 93.0295 375.141 92.5918 375.602 92.0557C376.063 91.5195 376.388 90.8979 376.557 90.2347C376.725 89.5715 376.731 88.8827 376.576 88.217L386.199 82.1818L383.597 75.9624L370.139 84.659C368.928 84.9714 367.885 85.6774 367.208 86.6432C366.53 87.609 366.265 88.7676 366.463 89.8993C366.661 91.0311 367.308 92.0574 368.282 92.7837C369.255 93.5101 370.487 93.8861 371.745 93.8405Z" fill="#FFB8B8"/>
<path d="M383.023 87.0177L374.452 81.294L386.501 66.3333L377.254 51.4755L381.391 40.7043L381.658 41.1682C381.783 41.3843 394.131 62.8037 396.285 66.2364C398.526 69.8071 383.801 86.1575 383.174 86.8514L383.023 87.0177Z" fill="#3F3D56"/>
<path d="M298.862 118.916L141.361 123.777C137.468 123.893 133.684 122.599 130.838 120.177C127.992 117.756 126.317 114.405 126.181 110.861L123.587 41.179C123.46 37.6343 124.881 34.1883 127.541 31.597C130.2 29.0057 133.879 27.4807 137.772 27.3566L295.273 22.4955C299.166 22.3793 302.95 23.674 305.796 26.0954C308.642 28.5168 310.317 31.8672 310.453 35.4116L313.047 105.094C313.174 108.638 311.753 112.084 309.094 114.676C306.434 117.267 302.755 118.792 298.862 118.916Z" fill="white"/>
<path d="M313.047 105.094L313.061 105.462C313.186 108.848 311.829 112.141 309.288 114.617C306.747 117.092 303.231 118.546 299.512 118.661L141.223 123.546C137.505 123.661 133.889 122.426 131.171 120.113C128.453 117.8 126.855 114.599 126.729 111.213L126.715 110.845L313.047 105.094Z" fill="#F2F2F2"/>
<path d="M157.559 49.0534C146.216 51.9791 135.649 44.2826 133.579 36.9038L134.371 36.7496C143.94 34.5114 154.936 40.4547 157.559 49.0534Z" fill="#F1B2B2"/>
<path d="M269.706 98.867C267.151 98.9459 265.093 98.3166 263.589 96.9965C260.19 94.0128 260.174 88.0598 260.161 83.2765C260.158 81.8849 260.154 80.5704 260.067 79.472L260.067 79.4554C259.998 77.3061 260.864 75.219 262.476 73.6476C264.088 72.0761 266.315 71.1473 268.675 71.0628L289.86 70.4089C292.412 70.3302 294.468 70.9585 295.971 72.2768C299.37 75.258 299.387 81.2095 299.402 85.9916C299.406 87.3861 299.41 88.7033 299.498 89.8037C299.57 91.9561 298.705 94.0473 297.092 95.6222C295.48 97.1971 293.249 98.1283 290.886 98.2133L269.706 98.867ZM260.956 79.4222C261.045 80.5469 261.048 81.8719 261.052 83.2746C261.064 87.9049 261.079 93.6675 264.207 96.4128C265.549 97.5912 267.338 98.1289 269.676 98.0568L290.854 97.4031C292.98 97.3273 294.986 96.491 296.438 95.076C297.89 93.6609 298.67 91.7814 298.609 89.8457C298.52 88.7339 298.516 87.4029 298.511 85.9937C298.497 81.3647 298.48 75.6035 295.353 72.8607C294.012 71.6841 292.224 71.1471 289.89 71.2192L268.706 71.873C266.583 71.9494 264.579 72.7848 263.128 74.198C261.677 75.6113 260.897 77.4884 260.956 79.4222Z" fill="#3F3D56"/>
<path d="M152.906 49.9434C149.191 50.0376 145.521 49.1806 142.314 47.4698C137.617 45.0091 133.989 40.9479 132.845 36.8717L132.73 36.4631L133.966 36.2221C143.678 33.9536 154.981 39.9491 157.685 48.8083L157.803 49.1968L157.377 49.3068C155.921 49.6831 154.42 49.8969 152.906 49.9434ZM133.83 37.0777C135.038 40.8122 138.419 44.494 142.758 46.7671C146.955 49.0343 151.964 49.7049 156.701 48.6335C153.91 40.3881 143.305 34.869 134.179 37.0095L133.83 37.0777Z" fill="#3F3D56"/>
<path d="M142.277 96.3641C140.939 96.4507 139.599 96.2038 138.403 95.6499C137.207 95.0959 136.2 94.2559 135.488 93.2199C134.663 91.9851 134.201 90.5777 134.147 89.1332C134.093 87.6886 134.448 86.2557 135.178 84.9725C135.825 83.8734 136.792 82.9587 137.975 82.3298C139.157 81.7008 140.507 81.3822 141.876 81.4091L170.103 80.5379C171.466 80.4297 172.835 80.6663 174.06 81.2215C175.284 81.7768 176.316 82.6292 177.043 83.6847C177.867 84.9196 178.328 86.3271 178.382 87.7714C178.436 89.2157 178.08 90.6483 177.349 91.9311C176.02 94.1728 173.641 95.4216 170.653 95.4873L142.425 96.3585C142.376 96.3606 142.326 96.3625 142.277 96.3641ZM141.767 82.2227C140.578 82.2156 139.409 82.5037 138.387 83.0559C137.364 83.6082 136.526 84.4038 135.962 85.3572C135.304 86.5133 134.984 87.8042 135.033 89.1056C135.082 90.407 135.498 91.6749 136.241 92.7873C136.886 93.7196 137.801 94.4711 138.886 94.9584C139.971 95.4458 141.183 95.65 142.388 95.5485L170.629 94.6768C171.84 94.7046 173.035 94.4267 174.083 93.8742C175.13 93.3216 175.99 92.5158 176.566 91.5459C177.224 90.3902 177.544 89.0996 177.496 87.7984C177.448 86.4972 177.032 85.2292 176.29 84.1167C175.643 83.1847 174.727 82.433 173.642 81.9445C172.557 81.456 171.345 81.2496 170.14 81.3479L141.897 82.2196C141.853 82.2204 141.81 82.2213 141.767 82.2227Z" fill="#3F3D56"/>
<path d="M276.273 80.4733L267.375 80.748C266.785 80.7655 266.212 80.5692 265.782 80.2023C265.351 79.8353 265.098 79.3277 265.078 78.7909C265.058 78.2541 265.273 77.7321 265.675 77.3394C266.078 76.9467 266.635 76.7156 267.224 76.6967L276.123 76.4221C276.713 76.4039 277.286 76.5998 277.718 76.9668C278.149 77.3338 278.403 77.8418 278.423 78.3791C278.443 78.9163 278.227 79.4388 277.824 79.8315C277.421 80.2243 276.863 80.4551 276.273 80.4733Z" fill="#F1B2B2"/>
<path d="M276.515 86.9554L267.616 87.23C267.324 87.2394 267.032 87.1963 266.758 87.103C266.484 87.0097 266.233 86.8681 266.019 86.6864C265.805 86.5046 265.633 86.2863 265.512 86.0438C265.39 85.8013 265.323 85.5394 265.313 85.2731C265.303 85.0069 265.351 84.7415 265.454 84.492C265.557 84.2426 265.713 84.0141 265.912 83.8196C266.112 83.6251 266.352 83.4684 266.619 83.3584C266.885 83.2484 267.173 83.1874 267.465 83.1787L276.364 82.9041C276.656 82.8947 276.948 82.9379 277.222 83.0311C277.496 83.1244 277.747 83.266 277.961 83.4477C278.175 83.6295 278.347 83.8479 278.469 84.0904C278.59 84.3328 278.657 84.5947 278.667 84.861C278.677 85.1272 278.629 85.3927 278.526 85.6421C278.424 85.8915 278.268 86.12 278.068 86.3145C277.868 86.509 277.628 86.6658 277.361 86.7757C277.095 86.8857 276.807 86.9467 276.515 86.9554Z" fill="#F1B2B2"/>
<path d="M276.756 93.4374L267.858 93.7121C267.268 93.7303 266.694 93.5344 266.262 93.1674C265.831 92.8003 265.578 92.2923 265.558 91.7551C265.538 91.2179 265.753 90.6954 266.156 90.3027C266.559 89.9099 267.117 89.679 267.707 89.6608L276.605 89.3862C276.897 89.3772 277.189 89.4206 277.462 89.5141C277.736 89.6076 277.987 89.7492 278.2 89.9309C278.414 90.1127 278.586 90.3309 278.707 90.5732C278.828 90.8155 278.895 91.0771 278.905 91.3432C278.915 91.6092 278.867 91.8743 278.765 92.1236C278.662 92.3728 278.506 92.6011 278.307 92.7956C278.107 92.9901 277.868 93.1469 277.602 93.257C277.335 93.3671 277.048 93.4284 276.756 93.4374Z" fill="#F1B2B2"/>
<path d="M291.846 79.9927L282.947 80.2674C282.655 80.2768 282.363 80.2336 282.089 80.1403C281.815 80.0471 281.564 79.9055 281.35 79.7237C281.136 79.542 280.964 79.3236 280.842 79.0811C280.721 78.8386 280.654 78.5767 280.644 78.3105C280.634 78.0442 280.682 77.7788 280.785 77.5294C280.888 77.28 281.043 77.0515 281.243 76.857C281.443 76.6624 281.683 76.5057 281.95 76.3957C282.216 76.2858 282.504 76.2247 282.796 76.2161L291.695 75.9415C291.987 75.9325 292.278 75.9759 292.552 76.0694C292.825 76.1629 293.076 76.3045 293.29 76.4862C293.503 76.6679 293.676 76.8862 293.797 77.1285C293.917 77.3708 293.985 77.6324 293.995 77.8985C294.005 78.1645 293.957 78.4296 293.854 78.6789C293.752 78.9281 293.596 79.1564 293.396 79.3509C293.197 79.5454 292.957 79.7022 292.691 79.8123C292.425 79.9224 292.138 79.9837 291.846 79.9927Z" fill="#F1B2B2"/>
<path d="M292.087 86.4748L283.189 86.7494C282.599 86.7676 282.025 86.5717 281.593 86.2047C281.162 85.8377 280.908 85.3297 280.888 84.7924C280.868 84.2552 281.084 83.7327 281.487 83.34C281.89 82.9472 282.448 82.7164 283.038 82.6981L291.936 82.4235C292.228 82.4141 292.52 82.4573 292.794 82.5506C293.068 82.6438 293.319 82.7854 293.533 82.9672C293.747 83.1489 293.92 83.3673 294.041 83.6098C294.162 83.8523 294.229 84.1141 294.239 84.3804C294.249 84.6467 294.201 84.9121 294.099 85.1615C293.996 85.4109 293.84 85.6394 293.64 85.8339C293.44 86.0284 293.2 86.1852 292.933 86.2952C292.667 86.4051 292.379 86.4661 292.087 86.4748Z" fill="#F1B2B2"/>
<path d="M292.328 92.9569L283.43 93.2315C283.137 93.2409 282.846 93.1977 282.572 93.1044C282.298 93.0111 282.047 92.8696 281.833 92.6878C281.619 92.5061 281.446 92.2877 281.325 92.0452C281.204 91.8027 281.136 91.5409 281.127 91.2746C281.117 91.0084 281.164 90.7429 281.267 90.4935C281.37 90.2441 281.526 90.0156 281.726 89.8211C281.926 89.6266 282.166 89.4699 282.432 89.3599C282.699 89.2499 282.987 89.1889 283.279 89.1802L292.177 88.9056C292.469 88.8966 292.761 88.94 293.034 89.0335C293.308 89.127 293.559 89.2686 293.772 89.4503C293.986 89.6321 294.158 89.8503 294.279 90.0926C294.4 90.3349 294.467 90.5966 294.477 90.8626C294.487 91.1286 294.439 91.3938 294.337 91.643C294.234 91.8922 294.079 92.1205 293.879 92.315C293.679 92.5095 293.44 92.6663 293.174 92.7764C292.908 92.8865 292.62 92.9478 292.328 92.9569Z" fill="#F1B2B2"/>
<path d="M311.019 50.5804L124.687 56.3314L124.717 57.1417L311.049 51.3906L311.019 50.5804Z" fill="#3F3D56"/>
<path d="M298.862 118.916L141.361 123.777C137.468 123.893 133.684 122.599 130.838 120.177C127.992 117.756 126.317 114.405 126.181 110.861L123.587 41.179C123.46 37.6343 124.881 34.1883 127.541 31.597C130.2 29.0057 133.879 27.4807 137.772 27.3566L295.273 22.4955C299.166 22.3793 302.95 23.674 305.796 26.0954C308.642 28.5168 310.317 31.8672 310.453 35.4116L313.047 105.094C313.174 108.638 311.753 112.084 309.094 114.676C306.434 117.267 302.755 118.792 298.862 118.916ZM137.802 28.1668C134.145 28.2834 130.689 29.716 128.191 32.1503C125.693 34.5845 124.357 37.8216 124.477 41.1515L127.071 110.834C127.199 114.163 128.772 117.31 131.446 119.585C134.119 121.86 137.674 123.076 141.331 122.967L298.832 118.106C302.489 117.989 305.945 116.557 308.443 114.122C310.941 111.688 312.277 108.451 312.157 105.121L309.563 35.439C309.435 32.1094 307.862 28.9621 305.189 26.6875C302.515 24.4128 298.96 23.1966 295.303 23.3057L137.802 28.1668Z" fill="#3F3D56"/>
<path d="M73.198 101.675C73.1609 100.962 72.9526 100.266 72.5879 99.6342C72.2231 99.0027 71.7107 98.4516 71.0868 98.0199C70.4629 97.5882 69.7426 97.2864 68.9767 97.1356C68.2108 96.9848 67.4179 96.9887 66.6538 97.1471L59.5654 88.051L52.4442 90.6252L62.6525 103.343C63.0299 104.494 63.8579 105.479 64.9796 106.111C66.1013 106.744 67.4388 106.979 68.7387 106.774C70.0385 106.568 71.2105 105.936 72.0323 104.996C72.8542 104.056 73.2689 102.875 73.198 101.675Z" fill="#A0616A"/>
<path d="M59.383 101.001L37.9347 75.6646L45.9712 52.6661C46.5601 46.884 50.5337 45.2694 50.7028 45.2034L50.9607 45.1027L57.9539 62.0839L52.8193 74.5518L65.4222 93.8525L59.383 101.001Z" fill="#3F3D56"/>
<path d="M133.869 22.8973C133.092 22.9861 132.345 23.229 131.682 23.609C131.019 23.9889 130.455 24.4967 130.031 25.0965C129.606 25.6963 129.331 26.3736 129.225 27.0805C129.119 27.7875 129.185 28.5071 129.418 29.1885L120.006 36.3269L123.375 42.5927L136.511 32.342C137.742 31.9104 138.756 31.0826 139.362 30.0153C139.968 28.9481 140.123 27.7156 139.797 26.5514C139.472 25.3873 138.688 24.3723 137.596 23.6988C136.503 23.0253 135.177 22.7401 133.869 22.8973Z" fill="#A0616A"/>
<path d="M134.2 35.4913L108.116 56.9219L82.3131 51.4042C75.9365 51.3166 73.8614 47.834 73.7761 47.6856L73.6459 47.4593L91.6985 39.7976L105.747 43.4951L125.905 30.5614L134.2 35.4913Z" fill="#3F3D56"/>
<path d="M89.0193 187.841H96.0274L99.361 163.227L89.0177 163.228L89.0193 187.841Z" fill="#A0616A"/>
<path d="M109.543 193.766L87.5177 193.767L87.5173 186.018L101.999 186.017C103.999 186.017 105.918 186.741 107.333 188.029C108.748 189.317 109.543 191.065 109.543 192.887L109.543 193.766Z" fill="#2F2E41"/>
<path d="M61.0095 187.841H68.0176L71.3512 163.227L61.0079 163.228L61.0095 187.841Z" fill="#A0616A"/>
<path d="M81.5331 193.766L59.5078 193.767L59.5074 186.018L73.9887 186.017C74.9794 186.017 75.9604 186.195 76.8757 186.54C77.791 186.885 78.6227 187.391 79.3232 188.029C80.0238 188.667 80.5795 189.424 80.9587 190.258C81.3379 191.091 81.5331 191.984 81.5331 192.887L81.5331 193.766Z" fill="#2F2E41"/>
<path d="M58.517 97.9989L59.0887 134.434L59.6599 182.321L72.236 181.28L78.5238 115.176L86.5268 181.28H99.5101L100.818 114.655L96.2443 100.081L58.517 97.9989Z" fill="#2F2E41"/>
<path d="M83.1309 102.892C69.4475 102.893 56.8522 97.2533 56.6822 97.1759L56.5409 97.1116L55.3927 72.0188C55.0597 71.1321 48.5029 53.6352 47.3924 48.0738C46.2672 42.4393 62.5738 37.4944 64.554 36.9161L65.0034 32.3834L83.2769 30.5905L85.5929 36.3902L92.1487 38.6286C92.8919 38.8825 93.507 39.3759 93.8774 40.0152C94.2478 40.6545 94.3478 41.3954 94.1584 42.0973L90.5149 55.5894L99.4137 100.228L97.4979 100.303C92.9648 102.084 88.0673 102.967 83.1309 102.892Z" fill="#3F3D56"/>
<path d="M74.8563 27.7204C82.1227 27.7204 88.0133 22.3566 88.0133 15.74C88.0133 9.12343 82.1227 3.75964 74.8563 3.75964C67.5899 3.75964 61.6992 9.12343 61.6992 15.74C61.6992 22.3566 67.5899 27.7204 74.8563 27.7204Z" fill="#A0616A"/>
<path d="M64.1991 27.3373C66.7066 29.7694 71.3632 28.4638 71.6899 25.1412C71.7155 24.8833 71.7137 24.6237 71.6843 24.3661C71.5156 22.8943 70.5819 21.5581 70.8056 20.0042C70.8562 19.6174 71.0144 19.2489 71.2653 18.9334C73.2634 16.4971 77.9538 20.0231 79.8395 17.8176C80.9958 16.4652 79.6366 14.3359 80.5239 12.8244C81.695 10.8294 85.1638 11.8136 87.3391 10.721C89.7594 9.50545 89.6146 6.12414 88.0214 4.06746C86.0784 1.55925 82.6718 0.220867 79.3076 0.027983C75.9434 -0.164901 72.6024 0.663186 69.4616 1.77772C65.893 3.04405 62.3542 4.79415 60.1582 7.65137C57.4876 11.1261 57.2306 15.7975 58.5662 19.8604C59.3787 22.332 62.1516 25.3513 64.1991 27.3373Z" fill="#2F2E41"/>
<path d="M242.539 261.429L248.851 261.428L251.854 239.258L242.538 239.258L242.539 261.429Z" fill="#FFB8B8"/>
<path d="M240.929 259.552L253.36 259.551C255.461 259.551 257.477 260.311 258.962 261.664C260.448 263.017 261.283 264.852 261.283 266.765V266.999L240.929 267L240.929 259.552Z" fill="#2F2E41"/>
<path d="M183.843 261.429L190.155 261.428L193.158 239.258L183.842 239.258L183.843 261.429Z" fill="#FFB8B8"/>
<path d="M182.233 259.552L194.664 259.551C196.765 259.551 198.78 260.311 200.266 261.664C201.752 263.017 202.586 264.852 202.587 266.765V266.999L182.233 267L182.233 259.552Z" fill="#2F2E41"/>
<path d="M245.055 148.921C245.055 148.921 250.353 162.016 249.596 167.529C248.84 173.043 254.895 211.64 254.138 215.086C253.381 218.532 254.895 235.762 254.138 238.519C253.381 241.276 256.262 244.569 254.748 247.326C253.235 250.083 251.11 255.75 251.11 255.75L241.27 255.06L239.757 247.479C239.757 247.479 235.215 246.79 235.972 242.654C236.729 238.519 232.187 210.95 232.187 210.95L219.32 172.354L201.154 207.504C201.154 207.504 200.397 232.316 198.126 235.073C195.856 237.83 200.397 245.411 198.126 248.168C195.856 250.925 193.585 255.75 193.585 255.75H182.231V250.236C182.231 250.236 175.419 246.79 182.231 236.451L186.834 174.366L191.376 146.108L245.055 148.921Z" fill="#2F2E41"/>
<path d="M216.838 62.2577C224.646 62.2577 230.976 56.4943 230.976 49.3848C230.976 42.2753 224.646 36.5118 216.838 36.5118C209.031 36.5118 202.701 42.2753 202.701 49.3848C202.701 56.4943 209.031 62.2577 216.838 62.2577Z" fill="#FFB8B8"/>
<path d="M228.869 48.4968C227.871 50.8176 226.874 53.1384 225.876 55.4591C224.65 58.3122 223.245 61.3647 220.371 62.9569C216.821 64.9228 212.082 63.9642 208.648 61.8347C205.56 59.9193 203.19 57.1894 201.855 54.0115C200.521 50.8336 200.286 47.36 201.183 44.0572C202.08 40.7545 204.066 37.7808 206.873 35.5355C209.68 33.2902 213.175 31.881 216.888 31.497L217.03 33.8273L220.17 31.4304C220.402 31.7933 220.722 32.1035 221.105 32.3378C221.487 32.5722 221.924 32.7244 222.38 32.7832C222.837 32.8421 223.302 32.8059 223.742 32.6774C224.181 32.549 224.582 32.3316 224.916 32.0416C224.091 33.5986 225.043 35.4976 226.418 36.6904C228.107 38.1556 232.938 39.9166 232.738 42.536C232.604 44.284 229.648 46.6853 228.869 48.4968Z" fill="#2F2E41"/>
<path d="M177.923 167.963C177.436 167.301 177.114 166.55 176.98 165.762C176.846 164.975 176.904 164.17 177.148 163.405C177.393 162.64 177.819 161.933 178.396 161.334C178.973 160.735 179.687 160.258 180.488 159.938L180.206 147.485L188.475 145.483L188.603 163.074C189.105 164.335 189.081 165.72 188.537 166.967C187.992 168.214 186.964 169.235 185.648 169.838C184.331 170.44 182.818 170.582 181.394 170.237C179.971 169.891 178.736 169.082 177.923 167.963Z" fill="#FFB8B8"/>
<path d="M206.337 70.2138C206.337 70.2138 217.292 65.2261 227.639 68.5512C237.985 71.8764 243.463 75.7558 243.463 75.7558L236.768 107.899L245.897 151.126C245.897 151.126 199.033 147.801 194.773 151.126C190.512 154.451 190.512 147.247 190.512 147.247L194.164 106.236L187.469 80.1893L206.337 70.2138Z" fill="#3F3D56"/>
<path d="M252.575 168.7C251.903 168.189 251.363 167.551 250.991 166.829C250.62 166.108 250.427 165.321 250.426 164.524C250.425 163.727 250.615 162.94 250.985 162.217C251.354 161.495 251.892 160.855 252.563 160.342L248.452 148.462L255.771 144.427L261.318 161.278C262.188 162.36 262.593 163.695 262.454 165.031C262.316 166.367 261.644 167.61 260.567 168.525C259.489 169.44 258.08 169.963 256.608 169.995C255.135 170.028 253.7 169.567 252.575 168.7Z" fill="#FFB8B8"/>
<path d="M239.203 75.7557H243.463C243.463 75.7557 250.158 79.6351 250.158 85.177C250.158 90.719 259.896 155.56 259.896 155.56L249.549 157.222L240.42 111.778L233.725 99.5861L239.203 75.7557Z" fill="#3F3D56"/>
<path d="M199.033 80.1893H187.469C187.469 80.1893 183.818 83.5145 181.992 91.2732C180.166 99.032 178.34 129.513 178.34 129.513L179.557 157.222H188.687L189.904 121.2L195.99 97.9235L199.033 80.1893Z" fill="#3F3D56"/>
</svg>
