<svg width="413" height="286" viewBox="0 0 413 286" fill="none" xmlns="http://www.w3.org/2000/svg">
<g clip-path="url(#clip0_55_513)">
<path opacity="0.1" d="M107.968 0.318585C146.493 4.8245 177.772 36.1571 212.482 55.7099C220.216 60.0671 228.322 63.904 236.893 65.0402C265.285 68.8064 291.465 42.7089 319.99 44.8397C343.109 46.5671 362.715 67.4932 371.033 92.1076C379.351 116.722 378.075 144.253 373.456 170.092C366.224 210.444 350.201 250.14 322.31 276.387C317.708 280.719 312.567 284.772 306.656 285.756C296.805 287.416 287.671 280.284 279.146 274.387C240.671 247.762 192.03 241.001 149.074 256.306C134.525 261.488 120.611 269.049 105.723 272.78C77.0533 279.951 44.6098 270.889 25.1445 245.879C5.67925 220.868 2.51444 179.759 21.0601 153.849C28.8023 143.035 39.4732 135.4 47.6006 124.966C68.0228 98.7727 60.4836 72.2894 57.9567 41.5727C55.4671 11.3055 85.4624 -2.31134 107.968 0.318585Z" fill="#E3857C"/>
<g opacity="0.2">
<path d="M283.085 192.908C283.085 192.908 294.481 202.646 288.056 217.095C281.631 231.543 299.083 255.57 299.083 255.57L298.549 255.496C275.144 251.956 263.516 229.094 276.532 212.104C281.362 205.8 285.335 198.388 283.085 192.908Z" fill="#E3857C"/>
<path opacity="0.1" d="M283.085 193.085C283.085 193.085 294.481 202.823 288.056 217.272C281.631 231.72 299.083 255.747 299.083 255.747L298.549 255.673C275.144 252.133 263.516 229.271 276.532 212.281C281.362 205.959 285.335 198.551 283.085 193.085Z" fill="black"/>
<path d="M283.085 192.908C283.085 192.908 289.518 204.844 283.085 214.581C276.652 224.319 281.983 251.645 299.075 255.57" stroke="#535461" stroke-miterlimit="10"/>
<path d="M262.791 232.304C262.791 232.304 275.795 230.534 276.979 240.491C278.164 250.448 301.983 251.818 301.983 251.818L301.536 252.073C281.867 263.106 263.069 259.099 265.911 244.452C266.959 239.019 266.872 233.547 262.791 232.304Z" fill="#E3857C"/>
<path d="M262.791 232.304C262.791 232.304 272.887 234.198 272.054 242.038C271.221 249.878 287.041 259.28 301.983 251.829" stroke="#535461" stroke-miterlimit="10"/>
</g>
<g opacity="0.2">
<path d="M147.926 177.575C147.926 177.575 157.396 185.666 152.068 197.669C146.741 209.672 161.232 229.639 161.232 229.639L160.788 229.575C141.344 226.641 131.679 207.63 142.491 193.521C146.493 188.272 149.794 182.116 147.926 177.575Z" fill="#E3857C"/>
<path opacity="0.1" d="M147.926 177.709C147.926 177.709 157.396 185.801 152.069 197.804C146.741 209.806 161.232 229.773 161.232 229.773L160.768 229.72C141.323 226.786 131.659 207.775 142.47 193.666C146.493 188.406 149.794 182.251 147.926 177.709Z" fill="black"/>
<path d="M147.926 177.575C147.926 177.575 153.27 187.486 147.926 195.581C142.582 203.676 147.011 226.375 161.211 229.639" stroke="#535461" stroke-miterlimit="10"/>
<path d="M131.062 210.298C131.062 210.298 141.878 208.837 142.852 217.102C143.825 225.367 163.626 226.535 163.626 226.535L163.253 226.747C146.911 235.915 131.29 232.587 133.647 220.415C134.521 215.873 134.451 211.314 131.062 210.298Z" fill="#E3857C"/>
<path d="M131.062 210.298C131.062 210.298 139.447 211.87 138.759 218.386C138.071 224.903 151.211 232.715 163.613 226.528" stroke="#535461" stroke-miterlimit="10"/>
</g>
<g opacity="0.2">
<path d="M108.159 126.605C108.159 126.605 117.628 134.696 112.301 146.699C106.974 158.702 121.464 178.669 121.464 178.669L121.021 178.605C101.576 175.671 91.9122 156.659 102.724 142.55C106.725 137.301 110.027 131.146 108.159 126.605Z" fill="#E3857C"/>
<path opacity="0.1" d="M108.159 126.739C108.159 126.739 117.628 134.831 112.301 146.833C106.974 158.836 121.464 178.803 121.464 178.803L121 178.75C101.556 175.816 91.8915 156.804 102.703 142.696C106.726 137.436 110.027 131.28 108.159 126.739Z" fill="black"/>
<path d="M108.159 126.605C108.159 126.605 113.503 136.515 108.159 144.611C102.815 152.706 107.243 175.405 121.444 178.669" stroke="#535461" stroke-miterlimit="10"/>
<path d="M91.295 159.328C91.295 159.328 102.111 157.866 103.084 166.131C104.058 174.396 123.859 175.564 123.859 175.564L123.486 175.777C107.144 184.944 91.5228 181.617 93.8799 169.444C94.7539 164.903 94.6835 160.344 91.295 159.328Z" fill="#E3857C"/>
<path d="M91.295 159.328C91.295 159.328 99.6793 160.9 98.9916 167.416C98.304 173.933 111.444 181.744 123.846 175.557" stroke="#535461" stroke-miterlimit="10"/>
</g>
<path d="M6.11423 209.679V204.855L121.808 177.129L142.499 175.118V179.539L27.2779 214.9L6.11423 209.679Z" fill="#DFE5EE"/>
<path opacity="0.05" d="M6.11423 209.679V204.855L121.808 177.129L142.499 175.118V179.539L27.2779 214.9L6.11423 209.679Z" fill="black"/>
<path d="M6.11423 204.855L121.808 172.304L142.031 175.118L27.2779 210.079L6.11423 204.855Z" fill="#DFE5EE"/>
<path d="M31.5114 131.316H23.9846V206.062H31.5114V131.316Z" fill="#DFE5EE"/>
<path d="M121.808 114.035H114.281V179.539H121.808V114.035Z" fill="#DFE5EE"/>
<path d="M140.619 93.5411V113.635L46.6727 131.567L35.5586 133.691L7.99488 138.951L0 136.94V113.635L42.6297 106.691L53.2385 104.963L130.743 92.3376L140.619 93.5411Z" fill="#DFE5EE"/>
<path opacity="0.05" d="M140.619 93.5411V113.635L46.6727 131.567L35.5586 133.691L7.99488 138.951L0 136.94V113.635L42.6297 106.691L53.2385 104.963L130.743 92.3376L140.619 93.5411Z" fill="black"/>
<path opacity="0.05" d="M31.5114 131.316V135.266L23.9846 136.703V131.316H31.5114Z" fill="black"/>
<path opacity="0.05" d="M121.808 114.035V118.032L114.281 119.465V114.035H121.808Z" fill="black"/>
<path d="M140.619 93.5411V113.635L102.475 120.916L91.3819 123.033L46.6727 131.567L35.5586 133.691L7.99487 138.951L8.46711 116.046L46.7721 109.522L57.4886 107.7H57.4927L101.282 100.242L111.978 98.4187L140.619 93.5411Z" fill="#DFE5EE"/>
<path d="M57.4927 107.7L46.6727 131.567L35.5586 133.691L46.7721 109.522L42.6297 106.691L53.2385 104.963L57.4886 107.7H57.4927Z" fill="#E3857C"/>
<path d="M112.517 98.7655L102.475 120.916L91.382 123.033L101.796 100.588L101.282 100.242L97.6536 97.7567L108.262 96.0294L111.978 98.4187L112.512 98.7655H112.517Z" fill="#E3857C"/>
<path opacity="0.05" d="M25.6333 204.755L33.156 203.248V204.755L25.6333 206.263V204.755Z" fill="black"/>
<path opacity="0.05" d="M115.458 178.233L122.98 176.725V178.233L115.458 179.741V178.233Z" fill="black"/>
<path d="M273.288 123.359C261.296 128.757 248.881 122.651 248.881 122.651C248.687 122.963 248.464 123.261 248.214 123.543C248.061 123.444 247.904 123.341 247.746 123.231C242.593 119.632 236.889 111.133 236.889 111.133L225.775 93.3252C224.413 91.1852 223.387 88.9014 222.722 86.5327C220.891 79.7438 215.046 79.4535 215.046 79.4535H208.198C204.884 79.4535 200.096 80.0482 195.357 80.8694C195.483 80.759 195.565 80.618 195.593 80.4658L195.365 80.5048L197.909 78.381C197.909 78.381 205.187 75.8608 206.044 70.4629L209.897 67.2242C209.897 67.2242 210.021 66.941 210.195 66.4419L211.475 65.065C217.051 59.1008 217.453 59.0017 217.453 59.0017L234.358 50.4535C234.358 50.4535 240.426 49.7173 237.895 35.2155C235.364 20.7138 237.067 18.9334 237.067 18.9334C237.067 18.9334 241.665 4.40328 232.85 6.21202C224.035 8.02076 228.02 20.4412 228.02 20.4412L228.633 23.1844C229.402 26.6199 229.359 30.1519 228.509 33.5732C227.593 37.272 226.57 41.8417 226.827 42.9319C227.278 44.8326 222.187 47.2396 222.187 47.2396L219.308 48.6767C216.26 50.1969 212.67 50.7201 209.205 50.1491L209.052 49.9509L207.328 48.8466C207.277 48.9979 207.236 49.1515 207.204 49.3067L206.5 48.8466V48.882C206.5 48.7545 206.5 48.6342 206.533 48.4997C206.735 47.1384 207.109 45.7998 207.647 44.507C207.693 44.3867 207.751 44.2592 207.801 44.153C211.021 43.9862 214.047 42.7803 216.267 40.7793C218.486 38.7784 219.733 36.1318 219.756 33.3749C219.756 32.2395 219.544 31.1114 219.126 30.0336C219.452 30.0853 219.786 30.0853 220.112 30.0336C221.661 29.8212 223.306 29.1416 224.109 27.97C224.534 27.3266 224.73 26.591 224.672 25.854C224.613 25.1169 224.304 24.4104 223.782 23.8216C223.585 23.6063 223.363 23.4083 223.119 23.2304C221.649 21.8146 219.188 21.4606 217.233 20.5085C215.373 19.613 213.961 18.183 212.229 17.1175C208.956 15.0964 204.773 14.4876 200.779 13.9319C199.064 13.6947 197.32 13.4576 195.597 13.6523C193.418 13.9 191.413 14.831 189.707 15.9955C189.101 16.3671 188.595 16.8435 188.219 17.3936C187.586 18.4555 187.863 19.7015 187.751 20.8766C187.478 23.7366 184.852 26.0657 181.952 27.5842C180.171 28.5151 178.224 29.2584 176.728 30.5079C175.233 31.7573 174.351 33.7289 175.283 35.3076C175.776 36.1429 176.749 36.8402 176.757 37.7853C176.725 38.2009 176.583 38.605 176.343 38.9675C175.348 40.7425 174.004 42.3588 172.371 43.746C166.323 42.5 159.794 45.2397 159.794 45.2397L140.097 45.9476C140.097 45.9476 134.529 43.7885 127.255 57.1045C119.981 70.4204 117.405 71.1425 117.405 71.1425C117.405 71.1425 104.149 81.2198 112.695 83.74C121.241 86.2602 125.95 74.0202 125.95 74.0202L130.694 66.4879C130.694 66.4879 141.398 57.8478 142.255 56.0496C143.113 54.2515 148.249 54.2515 148.249 54.2515L169.131 54.9594C169.159 55.1035 169.175 55.2489 169.181 55.3948C169.231 57.3912 167.039 58.9344 164.835 59.6742C163.444 60.1485 161.853 60.506 161.004 61.5467C160.155 62.5873 160.358 64.0987 161.211 65.1606C161.471 65.4778 161.776 65.7667 162.118 66.0207C163.014 66.8097 164.107 67.4148 165.316 67.7905C166.319 68.1319 167.362 68.3788 168.427 68.5268C167.994 70.0545 167.405 71.5468 166.666 72.9866L167.495 73.2911L167.221 73.914C166.053 76.5652 163.647 81.7967 161.517 84.9611C161.497 84.9611 157.648 87.7503 154.662 90.2705C152.379 92.189 146.878 110.659 162.976 110.991L166.65 113.306H166.724C169.993 117.249 180.784 123.727 180.784 123.727L161.7 124.69C160.748 124.739 159.8 124.837 158.862 124.983C158.55 125.031 158.238 125.084 157.926 125.143C154.562 125.773 150.838 125.55 148.842 125.348C147.52 123.224 141.385 124.088 141.385 124.088C141.385 124.088 140.528 134.887 141.799 141.004C143.071 147.12 147.794 143.163 147.794 143.163C146.936 137.765 154.007 133.794 154.007 133.794C154.906 133.408 155.971 132.94 157.222 132.378C161.19 130.558 180.067 133.34 185.904 134.261C187.189 134.465 188.495 134.56 189.802 134.544C206.533 134.31 202.188 127.337 202.188 127.337L198.82 121.674C198.267 120.732 197.775 119.766 197.345 118.779C194.371 112.053 189.748 108.351 186.206 106.369C186.397 106.163 186.587 105.958 186.774 105.742C186.774 105.742 186.492 105.686 186.065 105.576C189.056 104.27 191.036 103.225 191.036 103.225C191.036 103.225 210.734 93.1482 209.88 95.6684C209.027 98.1886 214.163 107.905 223.583 114.743C223.857 114.942 224.122 115.143 224.387 115.349L224.644 115.55L225.17 115.975L225.456 116.212L225.945 116.63L226.218 116.871L226.736 117.345L226.943 117.536C227.178 117.758 227.41 117.982 227.639 118.209L227.788 118.361C227.965 118.54 228.14 118.72 228.314 118.899L228.55 119.15L228.964 119.603L229.205 119.869L229.619 120.332L229.834 120.577L230.315 121.147L230.431 121.281C230.627 121.517 230.819 121.753 231.007 121.989L231.147 122.169L231.562 122.704L231.736 122.934L232.104 123.43L232.266 123.649L232.651 124.191L232.763 124.346C233.097 124.818 233.415 125.29 233.716 125.762L233.765 125.84L234.159 126.449L234.221 126.548L234.598 127.157L234.623 127.199C235.685 128.932 236.635 130.712 237.469 132.533C236.988 132.632 236.499 132.703 236.006 132.746C233.438 142.466 240.29 142.466 240.29 142.466C240.29 142.466 265.559 139.227 274.978 130.948C284.398 122.669 273.288 123.359 273.288 123.359Z" fill="url(#paint0_linear_55_513)"/>
<path d="M181.645 104.949C181.645 104.949 192.059 107.257 197.254 119.186C197.671 120.151 198.148 121.096 198.683 122.017L201.943 127.603C201.943 127.603 206.148 134.459 189.963 134.682C188.699 134.697 187.436 134.604 186.194 134.402C180.548 133.5 162.288 130.764 158.44 132.551C156.289 133.592 154.077 134.537 151.812 135.383L147.255 131.135L148.912 125.472C148.912 125.472 154.384 126.35 159.111 125.447C160.311 125.216 161.532 125.067 162.76 125.001L181.231 124.063C181.231 124.063 166.733 115.214 166.733 112.028C166.733 108.843 181.645 104.949 181.645 104.949Z" fill="#FFF1EE"/>
<path opacity="0.05" d="M150.577 126.541C150.577 126.541 146.021 132.891 155.337 133.974C155.337 133.974 148.506 137.868 149.335 143.177C149.335 143.177 144.778 147.071 143.535 141.053C142.292 135.036 143.121 124.417 143.121 124.417C143.121 124.417 150.577 123.355 150.577 126.541Z" fill="black"/>
<path opacity="0.05" d="M181.645 104.949C181.645 104.949 192.059 107.257 197.254 119.186C197.671 120.151 198.148 121.096 198.683 122.017L201.943 127.603C201.943 127.603 206.148 134.459 189.963 134.682C188.699 134.697 187.436 134.604 186.194 134.402C180.548 133.5 162.288 130.764 158.44 132.551C156.289 133.592 154.077 134.537 151.812 135.383L147.255 131.135L148.912 125.472C148.912 125.472 154.384 126.35 159.111 125.447C160.311 125.216 161.532 125.067 162.76 125.001L181.231 124.063C181.231 124.063 166.733 115.214 166.733 112.028C166.733 108.843 181.645 104.949 181.645 104.949Z" fill="black"/>
<path opacity="0.05" d="M149.335 131.85L150.991 126.187C150.991 126.187 156.464 127.065 161.19 126.162C162.391 125.931 163.611 125.782 164.84 125.716L183.302 124.771C183.302 124.771 168.804 115.922 168.804 112.736C168.804 109.551 183.717 105.657 183.717 105.657L183.829 105.686C183.127 105.387 182.397 105.14 181.645 104.949C181.645 104.949 166.733 108.843 166.733 112.028C166.733 115.214 181.231 124.063 181.231 124.063L162.773 125.008C161.544 125.074 160.324 125.223 159.123 125.454C154.397 126.357 148.924 125.479 148.924 125.479L147.267 131.142L151.824 135.39C151.824 135.39 152.131 135.284 152.76 135.036L149.335 131.85Z" fill="black"/>
<path d="M150.577 126.541C150.577 126.541 146.021 132.891 155.337 133.974C155.337 133.974 148.506 137.868 149.335 143.177C149.335 143.177 144.778 147.071 143.535 141.053C142.292 135.036 143.121 124.417 143.121 124.417C143.121 124.417 150.577 123.355 150.577 126.541Z" fill="#7E8CAF"/>
<path d="M138.258 229.147V224.322L253.951 196.597L274.643 194.586V199.007L159.421 234.368L138.258 229.147Z" fill="#DFE5EE"/>
<path opacity="0.05" d="M138.258 229.147V224.322L253.951 196.597L274.643 194.586V199.007L159.421 234.368L138.258 229.147Z" fill="black"/>
<path d="M138.258 224.322L253.951 191.772L274.175 194.586L159.421 229.547L138.258 224.322Z" fill="#DFE5EE"/>
<path d="M163.655 150.784H156.128V225.529H163.655V150.784Z" fill="#DFE5EE"/>
<path d="M253.951 133.503H246.425V199.007H253.951V133.503Z" fill="#DFE5EE"/>
<path d="M272.762 113.009V133.103L178.816 151.035L167.702 153.159L140.138 158.419L132.143 156.408V133.103L174.769 126.159L185.382 124.431L262.887 111.805L272.762 113.009Z" fill="#DFE5EE"/>
<path opacity="0.05" d="M272.762 113.009V133.103L178.816 151.035L167.702 153.159L140.138 158.419L132.143 156.408V133.103L174.769 126.159L185.382 124.431L262.887 111.805L272.762 113.009Z" fill="black"/>
<path opacity="0.05" d="M163.655 150.784V154.734L156.128 156.171V150.784H163.655Z" fill="black"/>
<path opacity="0.05" d="M253.951 133.503V137.499L246.425 138.933V133.503H253.951Z" fill="black"/>
<path d="M272.762 113.009V133.103L234.619 140.384L223.525 142.501L178.816 151.035L167.702 153.159L140.138 158.418L140.611 135.514L178.916 128.99L189.632 127.167H189.636L233.426 119.709L244.122 117.886L272.762 113.009Z" fill="#DFE5EE"/>
<path d="M189.636 127.167L178.816 151.035L167.702 153.159L178.916 128.99L174.769 126.159L185.382 124.431L189.632 127.167H189.636Z" fill="#E3857C"/>
<path d="M244.66 118.233L234.619 140.384L223.525 142.501L233.939 120.056L233.426 119.709L229.797 117.225L240.406 115.497L244.122 117.886L244.656 118.233H244.66Z" fill="#E3857C"/>
<path opacity="0.05" d="M157.777 224.223L165.299 222.715V224.223L157.777 225.731V224.223Z" fill="black"/>
<path opacity="0.05" d="M247.601 197.701L255.124 196.193V197.701L247.601 199.205V197.701Z" fill="black"/>
<path d="M233.065 51.9968L216.711 60.4033C216.711 60.4033 216.322 60.5024 210.912 66.3676L208.969 68.4913C204.86 73.0043 196.318 74.5087 196.318 74.5087L190.9 67.387L189.756 58.7362L190.958 55.2426L191.91 52.4746L200.245 53.494L203.6 55.0408L207.743 51.5012C208.066 51.5756 208.393 51.6428 208.72 51.6959C212.073 52.2609 215.552 51.7506 218.492 50.2624L221.276 48.8465C221.276 48.8465 226.197 46.4785 225.762 44.599C225.514 43.5371 226.504 39.0347 227.39 35.396C228.213 32.0305 228.254 28.5597 227.51 25.1807L226.918 22.4836C226.918 22.4836 223.07 10.2648 231.591 8.49505C240.112 6.72524 235.671 21.004 235.671 21.004C235.671 21.004 234.039 22.7526 236.499 37.0136C238.96 51.2747 233.065 51.9968 233.065 51.9968Z" fill="#FFF1EE"/>
<path d="M206.106 50.0995C205.642 53.8444 207.743 54.347 207.743 54.347L208.985 58.5946V63.1961L205.257 68.5055H196.144L188.273 65.3198V50.4535L187.031 46.9139C187.726 46.8757 188.418 46.7989 189.102 46.6838C193.099 46.0007 195.365 44.1034 196.641 42.0434C198.629 38.8188 198.215 35.219 198.215 35.219C198.215 35.219 214.785 31.3255 208.985 42.2982C208.215 43.7601 207.627 45.045 207.183 46.1918C206.664 47.4583 206.303 48.7681 206.106 50.0995Z" fill="#FFF1EE"/>
<path d="M195.56 81.1737C195.533 81.3307 195.447 81.4759 195.315 81.5879C195.1 81.8017 194.92 82.0399 194.781 82.2958C192.842 85.4213 189.102 96.4542 189.102 96.4542L168.804 90.0829L168.51 90.0192L160.519 88.3131C162.785 86.9291 166.571 78.6288 168.112 75.0679C168.526 74.0733 168.804 73.4468 168.804 73.4468L190.345 75.2166C190.345 75.2166 195.929 79.3933 195.56 81.1737Z" fill="#FFF1EE"/>
<path d="M187.031 45.8379C187.031 45.8379 180.817 47.9617 174.603 45.8379C168.39 43.7141 160.933 46.8998 160.933 46.8998L141.878 47.6077C141.878 47.6077 136.493 45.4839 129.451 58.5805C122.409 71.677 119.923 72.3849 119.923 72.3849C119.923 72.3849 107.082 82.2958 115.367 84.7735C123.651 87.2513 128.208 75.2166 128.208 75.2166L132.765 67.7834C132.765 67.7834 143.121 59.2884 143.949 57.5186C144.778 55.7488 149.749 55.7488 149.749 55.7488L170.461 56.4567L170.332 61.6316L176.675 66.3676L182.474 62.1201L187.031 54.3329V45.8379Z" fill="#FFF1EE"/>
<path opacity="0.1" d="M208.985 42.2982C208.215 43.7601 207.627 45.045 207.184 46.1918C206.96 46.1918 206.728 46.1918 206.5 46.1918C204.592 46.1935 202.709 45.8188 200.998 45.0968C199.288 44.3748 197.795 43.325 196.637 42.0292C198.629 38.8188 198.215 35.219 198.215 35.219C198.215 35.219 214.785 31.3255 208.985 42.2982Z" fill="black"/>
<path d="M206.5 45.8378C213.363 45.8378 218.927 41.0836 218.927 35.219C218.927 29.3544 213.363 24.6002 206.5 24.6002C199.637 24.6002 194.073 29.3544 194.073 35.219C194.073 41.0836 199.637 45.8378 206.5 45.8378Z" fill="#FFF1EE"/>
<path opacity="0.1" d="M195.56 81.1737C195.533 81.3307 195.447 81.4759 195.315 81.5879C195.1 81.8017 194.92 82.0399 194.781 82.2958C187.412 82.0197 171.285 76.2395 168.112 75.0821C168.526 74.0874 168.804 73.4609 168.804 73.4609L190.345 75.2307C190.345 75.2307 195.929 79.3933 195.56 81.1737Z" fill="black"/>
<path opacity="0.1" d="M210.928 66.3676L208.985 68.4914C204.876 73.0043 196.334 74.5087 196.334 74.5087L190.916 67.387L189.773 58.7362L190.137 50.2624C191.293 54.8639 194.524 64.4633 199.458 65.3057C207.705 66.7215 207.113 56.6231 206.707 52.3862C206.645 51.7319 206.715 51.0734 206.914 50.4394L208.571 51.5013L208.72 51.6959C212.668 56.9345 211.782 63.1713 210.928 66.3676Z" fill="black"/>
<path d="M189.102 45.1299H184.959C184.959 45.1299 189.102 67.7834 169.632 61.4121C169.632 61.4121 171.289 66.7215 167.561 74.1547C167.561 74.1547 187.445 81.5879 195.315 81.5879L197.801 79.4641C197.801 79.4641 204.843 76.9864 205.671 71.677L209.4 68.4913C209.4 68.4913 213.542 58.9344 207.743 51.5012L206.086 50.4394C205.886 51.0733 205.816 51.7319 205.879 52.3861C206.293 56.6337 206.877 66.7145 198.629 65.3057C188.273 63.5359 189.102 45.1299 189.102 45.1299Z" fill="#454A6A"/>
<path d="M160.933 109.551L167.561 113.798C167.561 113.798 178.331 116.63 187.031 106.365C187.031 106.365 181.645 105.303 182.474 102.825C183.302 100.348 160.933 109.551 160.933 109.551Z" fill="#F1B2B2"/>
<path opacity="0.05" d="M160.933 109.551L167.561 113.798C167.561 113.798 178.331 116.63 187.031 106.365C187.031 106.365 181.645 105.303 182.474 102.825C183.302 100.348 160.933 109.551 160.933 109.551Z" fill="black"/>
<path opacity="0.1" d="M195.56 81.5277C195.533 81.6846 195.447 81.8299 195.315 81.9418C193.658 83.3577 189.102 96.8082 189.102 96.8082L168.804 90.4369L168.51 90.3732C170.083 89.524 171.747 88.8057 173.481 88.2282C174.893 87.761 176.314 87.2654 177.544 86.7911C178.541 86.4267 179.499 85.9884 180.407 85.4815C182.143 84.4196 188.808 82.7206 195.56 81.5277Z" fill="black"/>
<path d="M242.539 131.85L236.325 133.266C236.325 133.266 236.185 132.912 235.911 132.296C234.586 129.415 230.17 120.754 222.655 115.214C213.542 108.489 208.571 98.9319 209.4 96.4542C210.228 93.9765 191.173 103.887 191.173 103.887C191.173 103.887 177.358 111.232 168.228 111.243C166.864 111.276 165.507 111.061 164.247 110.613C160.726 109.257 159.301 106.882 158.825 104.595C158.543 103.148 158.618 101.666 159.046 100.245C159.474 98.8243 160.245 97.4956 161.31 96.3445C164.467 92.8576 168.678 90.1736 173.489 88.5821C174.902 88.1149 176.322 87.6194 177.553 87.1451C178.55 86.7806 179.507 86.3424 180.415 85.8354C183.315 84.0656 199.885 80.526 207.755 80.526H214.383C214.383 80.526 220.033 80.8092 221.806 87.4849C222.445 89.807 223.434 92.0485 224.747 94.1535L235.497 111.675C235.497 111.675 241.015 120.032 245.998 123.571C247.419 124.583 248.798 125.203 249.995 125.125C255.381 124.771 242.539 131.85 242.539 131.85Z" fill="#FFF1EE"/>
<path opacity="0.1" d="M223.136 29.9167C223.547 29.2829 223.736 28.5614 223.68 27.8384C223.624 27.1154 223.326 26.4214 222.821 25.8391C221.429 24.2923 218.915 23.9383 216.931 22.9685C215.129 22.0871 213.766 20.6819 212.092 19.6342C208.927 17.6485 204.893 17.0467 201.02 16.5052C199.363 16.2716 197.672 16.0379 196.007 16.2326C193.899 16.4768 191.96 17.3936 190.307 18.5369C189.721 18.9036 189.231 19.3715 188.87 19.9103C188.257 20.9438 188.526 22.1827 188.418 23.3366C188.153 26.1506 185.61 28.4407 182.805 29.9309C181.082 30.8476 179.185 31.5768 177.752 32.805C176.318 34.0333 175.452 35.973 176.356 37.5233C176.836 38.3445 177.776 39.0312 177.781 39.9515C177.753 40.3595 177.62 40.7573 177.391 41.116C176.41 42.8989 175.073 44.5219 173.439 45.9122C171.973 47.1581 170.221 48.2766 169.458 49.9226C168.725 51.5048 169.044 53.31 169.719 54.9134C170.034 55.678 170.428 56.4425 170.444 57.2495C170.49 59.214 168.373 60.7219 166.24 61.4581C164.893 61.9218 163.34 62.2758 162.532 63.2987C161.724 64.3217 161.907 65.8083 162.731 66.8383C163.555 67.8684 164.885 68.5586 166.252 69.0293C168.79 69.9427 171.603 70.1387 174.28 69.5886C175.608 69.3051 176.852 68.7878 177.933 68.0698C179.014 67.3518 179.907 66.4489 180.556 65.419C181.799 63.3518 181.882 60.8175 183.605 59.0123C186.641 55.8585 193.045 56.6549 196.214 53.5931C198.758 51.1331 198.066 47.4059 197.871 44.1282C197.759 42.3023 197.848 40.4713 198.136 38.6595C198.344 37.3711 198.725 35.9871 199.909 35.173C200.866 34.5147 202.159 34.366 203.377 34.2386C205.92 33.966 208.849 33.4386 210.004 31.4812C210.485 30.6671 210.63 29.6406 211.496 29.1097C212.693 28.3735 214.371 29.1097 215.414 29.9946C216.566 30.9751 217.531 32.1821 219.284 31.9378C220.771 31.7396 222.361 31.0706 223.136 29.9167Z" fill="black"/>
<path d="M222.689 29.5345C223.099 28.9003 223.287 28.1786 223.23 27.4556C223.174 26.7326 222.875 26.0387 222.37 25.4568C220.978 23.91 218.463 23.5561 216.479 22.5862C214.677 21.7049 213.314 20.2996 211.641 19.2519C208.476 17.2662 204.441 16.6645 200.568 16.1229C198.911 15.8893 197.221 15.6557 195.556 15.8504C193.447 16.0946 191.509 17.0113 189.856 18.1546C189.269 18.5213 188.78 18.9892 188.418 19.528C187.805 20.5616 188.074 21.8004 187.967 22.9543C187.702 25.7683 185.158 28.0584 182.354 29.5486C180.631 30.4654 178.733 31.1945 177.3 32.4228C175.867 33.651 175.001 35.5907 175.904 37.1411C176.385 37.9623 177.325 38.6489 177.329 39.5692C177.302 39.9773 177.169 40.375 176.94 40.7338C175.959 42.5166 174.621 44.1397 172.988 45.5299C171.521 46.7759 169.769 47.8944 169.007 49.5403C168.274 51.1225 168.593 52.9277 169.268 54.5311C169.583 55.2957 169.976 56.0603 169.993 56.8673C170.038 58.8318 167.922 60.3396 165.788 61.0759C164.442 61.5396 162.889 61.8935 162.081 62.9165C161.273 63.9394 161.455 65.426 162.28 66.4561C163.104 67.4861 164.434 68.1763 165.801 68.6471C168.338 69.5604 171.151 69.7564 173.829 69.2063C175.157 68.9228 176.401 68.4055 177.482 67.6875C178.562 66.9695 179.456 66.0667 180.104 65.0367C181.347 62.9696 181.43 60.4352 183.153 58.63C186.19 55.4762 192.594 56.2726 195.763 53.2109C198.306 50.7509 197.614 47.0236 197.42 43.746C197.307 41.92 197.396 40.089 197.685 38.2773C197.892 36.9889 198.273 35.6049 199.458 34.7908C200.415 34.1324 201.707 33.9837 202.925 33.8563C205.469 33.5838 208.397 33.0564 209.553 31.099C210.033 30.2849 210.178 29.2584 211.044 28.7274C212.241 27.9912 213.919 28.7274 214.963 29.6123C216.115 30.5928 217.08 31.7998 218.832 31.5556C220.319 31.3538 221.914 30.6848 222.689 29.5345Z" fill="#E3857C"/>
<path opacity="0.1" d="M179.781 71.5C179.781 71.5 184.338 74.6856 190.137 74.3317L179.781 71.5Z" fill="black"/>
<path opacity="0.05" d="M250.998 125.189C248.62 127.185 243.368 130.08 243.368 130.08L237.154 131.496C237.154 131.496 232.597 120.17 223.484 113.444C214.371 106.719 209.4 97.1621 210.228 94.6844C211.057 92.2067 192.001 102.118 192.001 102.118C192.001 102.118 178.186 109.462 169.057 109.473C167.692 109.506 166.336 109.291 165.076 108.843C161.555 107.487 160.13 105.112 159.653 102.825C159.332 101.254 159.448 99.6401 159.993 98.1143C158.79 100.109 158.38 102.384 158.825 104.595C159.301 106.882 160.726 109.257 164.247 110.613C165.507 111.061 166.864 111.276 168.228 111.243C177.341 111.243 191.173 103.887 191.173 103.887C191.173 103.887 210.228 93.9765 209.4 96.4542C208.571 98.9319 213.542 108.489 222.655 115.214C231.769 121.939 236.325 133.266 236.325 133.266L242.539 131.85C242.539 131.85 253.264 125.936 250.998 125.189Z" fill="black"/>
<path opacity="0.1" d="M177.917 87.2513L177.213 87.5309C172.072 89.5481 167.862 92.9669 165.241 97.2506C159.691 106.482 167.027 110.641 168.228 111.243C166.864 111.276 165.507 111.061 164.247 110.613C160.726 109.257 159.301 106.882 158.825 104.595C158.543 103.148 158.618 101.666 159.046 100.245C159.474 98.8244 160.245 97.4956 161.31 96.3445C164.467 92.8577 168.678 90.1737 173.489 88.5822C174.902 88.1149 176.322 87.6194 177.553 87.1451L177.917 87.2513Z" fill="black"/>
<path d="M177.089 87.2512C177.089 87.2512 168.39 84.6107 162.59 85.931C162.59 85.931 158.862 88.6671 155.962 91.1448C153.601 93.1624 147.678 113.798 167.561 111.321C167.561 111.321 158.382 107.278 164.413 97.2506C167.033 92.9667 171.244 89.5478 176.385 87.5309L177.089 87.2512Z" fill="#454A6A"/>
<path opacity="0.1" d="M242.539 131.85L236.325 133.266C236.325 133.266 236.185 132.912 235.911 132.296C237.357 131.971 239.225 131.234 239.225 129.726C239.225 129.726 243.968 125.943 245.998 123.571C247.419 124.583 248.798 125.203 249.996 125.125C255.381 124.771 242.539 131.85 242.539 131.85Z" fill="black"/>
<path d="M239.639 130.08C239.639 130.08 245.853 125.125 247.096 123.001C247.096 123.001 259.109 129.019 270.708 123.709C270.708 123.709 281.478 123.001 272.365 131.142C263.251 139.283 238.811 142.469 238.811 142.469C238.811 142.469 232.183 142.469 234.669 132.912C234.669 132.912 239.639 132.558 239.639 130.08Z" fill="#7E8CAF"/>
<path d="M276.615 253.924V249.1L392.309 221.374L413 219.363V223.784L297.778 259.145L276.615 253.924Z" fill="#DFE5EE"/>
<path opacity="0.05" d="M276.615 253.924V249.1L392.309 221.374L413 219.363V223.784L297.778 259.145L276.615 253.924Z" fill="black"/>
<path d="M276.615 249.1L392.309 216.549L412.532 219.363L297.778 254.324L276.615 249.1Z" fill="#DFE5EE"/>
<path d="M302.012 175.561H294.485V250.307H302.012V175.561Z" fill="#DFE5EE"/>
<path d="M392.309 158.28H384.782V223.784H392.309V158.28Z" fill="#DFE5EE"/>
<path d="M411.119 137.786V157.881L317.173 175.812L306.059 177.936L278.495 183.196L270.5 181.185V157.881L313.126 150.936L323.739 149.208L401.244 136.583L411.119 137.786Z" fill="#DFE5EE"/>
<path opacity="0.05" d="M411.119 137.786V157.881L317.173 175.812L306.059 177.936L278.495 183.196L270.5 181.185V157.881L313.126 150.936L323.739 149.208L401.244 136.583L411.119 137.786Z" fill="black"/>
<path opacity="0.05" d="M302.012 175.561V179.511L294.485 180.948V175.561H302.012Z" fill="black"/>
<path opacity="0.05" d="M392.309 158.28V162.277L384.782 163.71V158.28H392.309Z" fill="black"/>
<path d="M411.119 137.786V157.88L372.976 165.161L361.882 167.278L317.173 175.812L306.059 177.936L278.495 183.196L278.968 160.291L317.273 153.767L327.989 151.945H327.993L371.783 144.487L382.479 142.664L411.119 137.786Z" fill="#DFE5EE"/>
<path d="M327.993 151.945L317.173 175.812L306.059 177.936L317.273 153.768L313.126 150.936L323.739 149.208L327.989 151.945H327.993Z" fill="#E3857C"/>
<path d="M383.017 143.011L372.976 165.161L361.882 167.278L372.297 144.834L371.783 144.487L368.154 142.002L378.763 140.275L382.479 142.664L383.013 143.011H383.017Z" fill="#E3857C"/>
<path opacity="0.05" d="M296.134 249.001L303.656 247.493V249.001L296.134 250.508V249.001Z" fill="black"/>
<path opacity="0.05" d="M385.958 222.478L393.481 220.97V222.478L385.958 223.983V222.478Z" fill="black"/>
</g>
<defs>
<linearGradient id="paint0_linear_55_513" x1="194.305" y1="144.416" x2="194.305" y2="6.04211" gradientUnits="userSpaceOnUse">
<stop stop-color="#808080" stop-opacity="0.25"/>
<stop offset="0.54" stop-color="#808080" stop-opacity="0.12"/>
<stop offset="1" stop-color="#808080" stop-opacity="0.1"/>
</linearGradient>
<clipPath id="clip0_55_513">
<rect width="413" height="286" fill="white"/>
</clipPath>
</defs>
</svg>
