<svg width="384" height="307" viewBox="0 0 384 307" fill="none" xmlns="http://www.w3.org/2000/svg">
<g clip-path="url(#clip0_55_657)">
<path d="M338.229 228.921H333.857V241.581H338.229V228.921Z" fill="#D9D9D9"/>
<path d="M360.396 238.659H311.694C308.073 238.659 305.138 235.798 305.138 232.267C305.138 228.737 308.073 225.875 311.694 225.875H360.396C364.017 225.875 366.952 228.737 366.952 232.267C366.952 235.798 364.017 238.659 360.396 238.659Z" fill="#D9D9D9"/>
<path d="M364.142 238.659C367.073 238.659 369.45 236.343 369.45 233.485V171.999C369.45 169.141 367.073 166.825 364.142 166.825C361.211 166.825 358.835 169.141 358.835 171.999C342.716 184.026 349.267 207.963 358.835 233.485C358.835 236.343 361.211 238.659 364.142 238.659Z" fill="#D9D9D9"/>
<path d="M357.636 211.634C356.916 214.782 355.558 217.268 353.853 219.227C350.382 223.233 345.463 225.05 341.583 225.875C338.098 226.618 335.451 226.557 335.451 226.557L319.065 227.874L306.115 228.914L293.103 229.961C293.845 233.001 294.551 236.494 295.224 240.23C295.3 240.675 295.383 241.128 295.466 241.581H269.04L268.597 240.23L265.881 232.022L260.373 220.288C259.368 218.376 258.862 216.289 258.862 214.188C258.862 212.789 259.091 211.398 259.541 210.047C259.548 210.027 259.548 210.006 259.555 209.986C260.615 206.865 263.234 204.474 266.477 203.521L270.391 202.366C281.491 199.839 297.046 195.901 308.908 192.848C318.815 190.294 326.139 188.349 326.139 188.349L326.16 188.214L328.211 174.541L348.657 172.791L355.301 172.217C355.301 172.217 355.156 172.893 355.211 175.318C355.211 175.466 355.211 175.622 355.218 175.777C355.232 176.25 355.253 176.79 355.281 177.392C355.288 177.594 355.301 177.804 355.315 178.02C355.336 178.439 355.364 178.884 355.398 179.364C355.398 179.398 355.398 179.432 355.405 179.465C355.44 180.067 355.489 180.722 355.551 181.424C355.565 181.715 355.592 182.012 355.62 182.316C355.752 183.85 355.918 185.606 356.133 187.606C356.147 187.808 356.168 188.011 356.195 188.214C356.223 188.531 356.258 188.849 356.292 189.173C356.362 189.74 356.424 190.321 356.493 190.929C356.5 190.99 356.507 191.044 356.514 191.105C356.576 191.639 356.646 192.186 356.708 192.753C356.784 193.368 356.86 193.996 356.944 194.638C356.992 195.07 357.047 195.516 357.11 195.975C357.138 196.192 357.165 196.415 357.193 196.637C357.228 196.874 357.255 197.117 357.29 197.36C357.345 197.793 357.401 198.238 357.463 198.691C357.595 199.698 357.74 200.738 357.886 201.819C358.419 205.649 358.267 208.898 357.636 211.634Z" fill="#2F2E41"/>
<path d="M357.636 211.634L352.281 213.891L323.811 225.874L319.065 227.874L307.411 232.778C307.744 234.488 308.097 236.176 308.478 237.838C308.658 238.642 308.838 239.439 309.032 240.23C309.143 240.682 309.247 241.128 309.365 241.581H285.78L285.6 240.23L284.914 234.94C283.549 233.751 282.745 231.475 282.26 229.056C281.775 226.645 281.602 224.071 281.484 222.287C281.484 222.267 281.484 222.24 281.477 222.22C281.283 218.923 287.886 216.735 290.526 214.681L293.769 213.634C300.468 209.101 310.425 202.238 320.063 195.57C323.714 193.044 327.324 190.544 330.684 188.214C341.132 180.958 349.267 175.291 349.267 175.291L348.657 172.791L355.301 172.217C355.301 172.217 355.156 172.893 355.211 175.318C355.211 175.466 355.211 175.622 355.218 175.777C355.232 176.257 355.253 176.79 355.281 177.392C355.288 177.594 355.301 177.804 355.315 178.02C355.336 178.439 355.364 178.884 355.398 179.364C355.398 179.398 355.398 179.432 355.405 179.465C355.44 180.067 355.488 180.722 355.551 181.424C355.565 181.715 355.592 182.012 355.62 182.316C355.745 183.85 355.911 185.599 356.133 187.606C356.147 187.808 356.167 188.011 356.195 188.214C356.223 188.531 356.258 188.849 356.292 189.173C356.361 189.74 356.424 190.328 356.493 190.929C356.5 190.99 356.507 191.044 356.514 191.105C356.576 191.639 356.646 192.186 356.708 192.753C356.784 193.368 356.86 193.996 356.943 194.638C356.999 195.077 357.054 195.523 357.11 195.975C357.137 196.192 357.165 196.415 357.193 196.637C357.228 196.874 357.255 197.117 357.29 197.36C357.345 197.793 357.401 198.238 357.463 198.691C357.595 199.698 357.74 200.738 357.886 201.819C358.419 205.649 358.267 208.898 357.636 211.634Z" fill="#2F2E41"/>
<path d="M361.9 179.157C362.988 183.689 362.552 186.797 362.122 191.228C361.963 192.863 362.51 195.214 360.882 196.315C359.489 197.241 309.389 196.802 308.924 193.019C308.398 188.742 309.423 184.257 311.564 180.4C315.437 173.415 317.654 164.862 318.791 158.789C321.195 146.029 315.777 139.098 317.8 126.371C318.146 124.202 318.216 122.149 318.132 120.183C317.855 113.353 315.694 107.557 316.38 101.673C316.664 99.2547 317.426 96.8228 318.999 94.2963C319.463 93.5465 319.996 92.7899 320.613 92.0265C324.188 87.5815 325.123 84.2309 331.331 84.2376C332.281 84.2376 333.292 84.1768 334.318 84.1295C335.96 84.0417 337.636 83.9809 339.119 84.2376C342.68 84.8524 341.891 87.0343 344.191 89.4257L345.078 90.2904C347.295 91.9927 349.214 93.3235 351.154 95.3772C355.048 99.4979 359.669 104.132 361.963 109.28C363.515 112.772 362.572 118.109 362.531 121.919C362.482 126.816 360.93 130.93 359.635 135.598C358.505 139.652 358.208 143.907 357.438 148.048C356.448 153.405 355.547 158.688 355.09 164.086C354.736 168.321 360.861 161.316 360.875 165.558C360.889 169.956 360.875 174.901 361.9 179.157Z" fill="#3F3D56"/>
<path d="M275.115 97.5683L290.543 100.261L290.195 109.069L273.987 105.656C273.545 105.898 273.061 106.081 272.54 106.192C269.71 106.796 266.913 105.047 266.295 102.287C265.676 99.5275 267.469 96.8012 270.3 96.198C272.105 95.8133 273.893 96.3878 275.115 97.5683Z" fill="#F1B2B2"/>
<path d="M336.909 118.244C336.23 119.595 335.177 120.764 333.826 121.615C331.83 122.871 329.488 123.216 327.32 122.756C327.056 122.702 326.163 122.459 324.791 122.067C324.555 122 324.306 121.932 324.043 121.858C322.484 121.419 320.454 120.838 318.132 120.183C315.832 119.527 313.227 118.791 310.532 118.034L310.518 118.041C309.7 117.798 308.855 117.562 308.017 117.325H308.003C301.732 115.589 295.171 113.819 290.39 112.684C290.169 112.623 289.019 113.698 288.804 113.643C288.471 113.562 288.409 112.326 288.097 112.252C287.425 112.09 286.545 113.11 285.991 112.975C283.974 112.495 283.171 108.314 283.171 108.314L283.261 107.611L284.272 99.1668L284.286 99.0182L289.988 97.2686L291.887 99.0587L294.52 97.9914L296.973 99.7815L301.982 100.268L304.144 100.484L304.289 100.491L316.38 101.673L319.941 102.024C319.657 100.619 319.435 99.2276 319.276 97.8563C319.234 97.4712 319.193 97.093 319.165 96.7147L319.158 96.7079C319.082 95.8973 319.033 95.1001 318.999 94.2962C319.463 93.5464 319.996 92.7898 320.613 92.0265C324.188 87.5814 325.123 84.2308 331.331 84.2376C332.281 84.2376 333.292 84.1768 334.318 84.1295L335.918 97.9509L337.678 113.15L337.733 113.643C337.914 115.265 337.616 116.852 336.909 118.244Z" fill="#3F3D56"/>
<path d="M306.947 93.1853C306.157 92.6314 305.146 92.5301 304.252 92.9152L277.327 104.487C274.875 105.541 272.103 105.73 269.526 105.021L269.131 104.913C270.252 95.2004 267.391 84.7484 261.773 73.7841C261.045 73.6895 260.318 73.8787 259.729 74.3245C259.036 74.8514 258.648 75.6486 258.676 76.5132L259.521 106.953L259.805 117.059C253.664 124.231 251.444 130.866 260.331 135.98C260.359 136.933 260.893 137.784 261.752 138.243C262.611 138.709 263.629 138.696 264.475 138.21L265.022 137.892L272.415 147.991C272.907 147.802 273.42 147.708 273.939 147.708C274.653 147.708 275.367 147.883 276.004 148.241L289.452 155.787L298.612 160.928C299.429 161.387 300.42 161.407 301.259 160.982C302.097 160.549 302.637 159.746 302.721 158.827L302.977 155.787L303.829 145.789L305.229 129.293L305.894 121.423L305.998 120.247L308.09 95.5835C308.173 94.631 307.744 93.7325 306.947 93.1853Z" fill="#D9D9D9"/>
<path d="M309.026 96.563C308.236 96.0091 307.224 95.9078 306.33 96.2928C296.591 103.604 287.172 109.464 279.406 107.865C276.953 108.919 274.182 109.108 271.604 108.398L271.209 108.29C272.331 98.5781 269.469 88.126 263.851 77.1618C263.124 77.0672 262.396 77.2563 261.807 77.7022C261.114 78.2291 260.726 79.0262 260.754 79.8909L261.599 110.33L261.883 120.436C255.743 127.608 253.522 134.244 262.41 139.358C262.438 140.311 262.971 141.162 263.83 141.621C264.69 142.087 265.708 142.074 266.553 141.587L267.101 141.27L274.493 151.369C274.985 151.18 275.498 151.085 276.018 151.085C276.731 151.085 277.445 151.261 278.083 151.619L291.531 159.165L300.691 164.305C301.508 164.765 302.499 164.785 303.337 164.36C304.176 163.927 304.716 163.123 304.799 162.205L305.056 159.165L305.908 149.167L307.307 132.67L307.972 124.8L308.076 123.625L310.169 98.9612C310.252 98.0087 309.822 97.1102 309.026 96.563Z" fill="#E3857C"/>
<path d="M304.034 110.264L283.371 115.163L283.666 116.346L304.329 111.446L304.034 110.264Z" fill="white"/>
<path d="M304.034 119.395L283.371 124.295L283.666 125.478L304.329 120.578L304.034 119.395Z" fill="white"/>
<path d="M283.233 131.35L283.206 132.567L304.467 133.004L304.494 131.787L283.233 131.35Z" fill="white"/>
<path d="M283.271 140.099L283.199 141.314L304.429 142.518L304.501 141.302L283.271 140.099Z" fill="white"/>
<path d="M282.202 148.805L282.004 150.007L303.001 153.293L303.199 152.091L282.202 148.805Z" fill="white"/>
<path d="M218.66 159.166H378.776C380.153 159.166 381.269 162.249 381.269 166.051V181.328C381.269 185.131 380.153 188.214 378.776 188.214H242.217C240.84 188.214 239.724 185.131 239.724 181.328L216.167 166.051C216.167 162.249 217.283 159.166 218.66 159.166Z" fill="#D9D9D9"/>
<path d="M333.657 61.6103C333.546 61.4211 333.428 61.2388 333.303 61.0631C333.186 60.8807 333.054 60.7051 332.922 60.5362C332.86 60.4484 332.798 60.3673 332.728 60.293C332.105 59.5161 331.412 58.8879 330.705 58.5096C330.657 58.4826 330.608 58.4556 330.56 58.4353C330.449 58.3745 330.338 58.3272 330.22 58.2867C330.005 58.2056 329.791 58.1448 329.569 58.1178C329.465 58.1043 329.361 58.0975 329.257 58.0975C329.181 58.0975 329.105 58.1043 329.029 58.1111C328.987 58.1178 328.938 58.1245 328.89 58.1313C328.835 58.1381 328.772 58.1516 328.717 58.1651C328.654 58.1786 328.592 58.1989 328.537 58.2191C328.481 58.2394 328.419 58.2597 328.363 58.2867C328.301 58.3137 328.239 58.3407 328.183 58.3745C328.121 58.4083 328.065 58.4421 328.01 58.4758C327.948 58.5164 327.892 58.5569 327.837 58.5974C329.957 59.7661 332.036 61.0091 334.059 62.3128C333.934 62.0697 333.802 61.84 333.657 61.6103Z" fill="#3F3D56"/>
<path d="M333.657 61.6103C333.546 61.4211 333.428 61.2388 333.303 61.0631C333.186 60.8807 333.054 60.7051 332.922 60.5362C332.86 60.4484 332.798 60.3673 332.728 60.293C332.105 59.5161 331.412 58.8879 330.705 58.5096C330.657 58.4826 330.608 58.4556 330.56 58.4353C330.449 58.3745 330.338 58.3272 330.22 58.2867C330.005 58.2056 329.791 58.1448 329.569 58.1178C329.465 58.1043 329.361 58.0975 329.257 58.0975C329.181 58.0975 329.105 58.1043 329.029 58.1111C328.987 58.1178 328.938 58.1245 328.89 58.1313C328.835 58.1381 328.772 58.1516 328.717 58.1651C328.654 58.1786 328.592 58.1989 328.537 58.2191C328.481 58.2394 328.419 58.2597 328.363 58.2867C328.301 58.3137 328.239 58.3407 328.183 58.3745C328.121 58.4083 328.065 58.4421 328.01 58.4758C327.948 58.5164 327.892 58.5569 327.837 58.5974C329.957 59.7661 332.036 61.0091 334.059 62.3128C333.934 62.0697 333.802 61.84 333.657 61.6103Z" fill="#3F3D56"/>
<path d="M368.279 43.6479H143.924V44.9989H274.75C288.032 44.9989 300.746 47.3363 312.497 51.6192H312.504C314.118 52.2069 315.705 52.8284 317.278 53.4904C320.908 55.0036 324.428 56.7127 327.837 58.5974C329.957 59.7661 332.036 61.009 334.059 62.3128C338.382 65.0892 342.484 68.1629 346.336 71.5068L346.343 71.5136C346.516 71.6554 346.683 71.7973 346.849 71.9527C368.806 91.1986 382.614 119.112 382.614 150.166V226.251C382.614 233.803 376.476 239.951 369.45 232.837C369.291 232.675 369.131 232.513 368.972 232.338H234.689V241.579H368.279C376.947 241.579 384 234.702 384 226.251V58.9757C384 50.5248 376.947 43.6479 368.279 43.6479Z" fill="#3F3D56"/>
<path d="M333.657 61.6103C333.546 61.4211 333.428 61.2388 333.303 61.0631C333.186 60.8807 333.054 60.7051 332.922 60.5362C332.86 60.4484 332.798 60.3673 332.728 60.293C332.105 59.5161 331.412 58.8879 330.705 58.5096C330.657 58.4826 330.608 58.4556 330.56 58.4353C330.449 58.3745 330.338 58.3272 330.22 58.2867C330.005 58.2056 329.791 58.1448 329.569 58.1178C329.465 58.1043 329.361 58.0975 329.257 58.0975C329.181 58.0975 329.105 58.1043 329.029 58.1111C328.987 58.1178 328.938 58.1245 328.89 58.1313C328.835 58.1381 328.772 58.1516 328.717 58.1651C328.654 58.1786 328.592 58.1989 328.537 58.2191C328.481 58.2394 328.419 58.2597 328.363 58.2867C328.301 58.3137 328.239 58.3407 328.183 58.3745C328.121 58.4083 328.065 58.4421 328.01 58.4758C327.948 58.5164 327.892 58.5569 327.837 58.5974C329.957 59.7661 332.036 61.0091 334.059 62.3128C333.934 62.0697 333.802 61.84 333.657 61.6103Z" fill="#3F3D56"/>
<path d="M333.657 61.6103C333.546 61.4211 333.428 61.2388 333.303 61.0631C333.186 60.8807 333.054 60.7051 332.922 60.5362C332.86 60.4484 332.798 60.3673 332.728 60.293C332.105 59.5161 331.412 58.8879 330.705 58.5096C330.657 58.4826 330.608 58.4556 330.56 58.4353C330.449 58.3745 330.338 58.3272 330.22 58.2867C330.005 58.2056 329.791 58.1448 329.569 58.1178C329.465 58.1043 329.361 58.0975 329.257 58.0975C329.181 58.0975 329.105 58.1043 329.029 58.1111C328.987 58.1178 328.938 58.1245 328.89 58.1313C328.835 58.1381 328.772 58.1516 328.717 58.1651C328.654 58.1786 328.592 58.1989 328.537 58.2191C328.481 58.2394 328.419 58.2597 328.363 58.2867C328.301 58.3137 328.239 58.3407 328.183 58.3745C328.121 58.4083 328.065 58.4421 328.01 58.4758C327.948 58.5164 327.892 58.5569 327.837 58.5974C329.957 59.7661 332.036 61.0091 334.059 62.3128C333.934 62.0697 333.802 61.84 333.657 61.6103Z" fill="#3F3D56"/>
<path d="M333.657 61.6103C333.546 61.4211 333.428 61.2388 333.303 61.0631C333.186 60.8807 333.054 60.7051 332.922 60.5362C332.86 60.4484 332.798 60.3673 332.728 60.293C332.105 59.5161 331.412 58.8879 330.705 58.5096C330.657 58.4826 330.608 58.4556 330.56 58.4353C330.449 58.3745 330.338 58.3272 330.22 58.2867C330.005 58.2056 329.791 58.1448 329.569 58.1178C329.465 58.1043 329.361 58.0975 329.257 58.0975C329.181 58.0975 329.105 58.1043 329.029 58.1111C328.987 58.1178 328.938 58.1245 328.89 58.1313C328.835 58.1381 328.772 58.1516 328.717 58.1651C328.654 58.1786 328.592 58.1989 328.537 58.2191C328.481 58.2394 328.419 58.2597 328.363 58.2867C328.301 58.3137 328.239 58.3407 328.183 58.3745C328.121 58.4083 328.065 58.4421 328.01 58.4758C327.948 58.5164 327.892 58.5569 327.837 58.5974C329.957 59.7661 332.036 61.0091 334.059 62.3128C333.934 62.0697 333.802 61.84 333.657 61.6103Z" fill="#3F3D56"/>
<path d="M328.603 80.9686C329.008 81.016 329.411 81.0516 329.813 81.0695C331.062 81.1363 332.297 81.0668 333.486 80.8702C337.1 80.3054 340.384 78.6363 342.918 76.1887C345.596 73.606 347.429 70.1588 347.925 66.2344C349.086 56.9712 342.32 48.533 332.82 47.4011C323.455 46.2789 314.919 52.6649 313.556 61.7155C313.535 61.8556 313.512 61.9898 313.497 62.1293C312.337 71.3985 319.095 79.8314 328.603 80.9686Z" fill="#F1B2B2"/>
<path d="M309.649 61.0954C312.11 62.2821 316.132 58.5515 317.672 60.6979C317.922 60.234 318.198 59.7855 318.471 59.3612C318.718 58.9816 319.072 58.1713 319.48 58.0325C318.963 59.2497 319.077 60.8982 319.614 62.3105C322.042 63.1949 325.22 61.2372 327.467 58.9216C330.995 55.2907 336.756 64.6014 335.394 69.4199C337.127 67.3559 340.889 68.52 342.164 70.88C343.438 73.2342 341.285 75.1204 340.825 77.7462L344.3 77.3159C346.493 75.2337 346.34 71.725 348.146 69.3118C351.162 65.273 352.33 61.1521 350.063 56.984C348.052 53.2984 347.864 48.5286 344.174 46.4038C345.786 45.6353 340.053 46.8359 341.585 44.3315C343.123 41.8324 334.924 41.529 334.39 42.8679C332.047 40.1343 329.684 38.332 326.802 40.5224C323.972 42.6774 324.265 44.9426 320.941 44.7396C319.381 44.6453 319.552 47.4807 318.625 48.7169C317.703 49.9465 314.12 50.7359 313.945 50.6043C312.999 49.8823 309.779 56.0285 309.779 56.0285C309.779 56.0285 307.168 59.893 309.649 61.0954Z" fill="#2F2E41"/>
<path d="M266.158 2.36612H230.483C227.331 2.36612 224.767 4.87236 224.767 7.94602V42.7292C224.767 43.0399 224.795 43.3506 224.843 43.6479C224.926 44.1208 225.065 44.5734 225.259 44.999C226.153 46.9445 228.162 48.3023 230.483 48.3023H266.158C268.48 48.3023 270.489 46.9445 271.383 44.999C271.584 44.5734 271.722 44.1208 271.798 43.6479C271.854 43.3507 271.881 43.0399 271.881 42.7292V7.94603C271.881 4.87236 269.311 2.36612 266.158 2.36612ZM270.627 44.9989C269.789 46.5729 268.105 47.6471 266.158 47.6471H230.483C228.536 47.6471 226.852 46.5729 226.014 44.9989C225.786 44.5801 225.619 44.1275 225.529 43.6479C225.467 43.3506 225.439 43.0399 225.439 42.7292V7.94603C225.439 7.87173 225.439 7.80415 225.453 7.73661V7.72985C225.564 5.10879 227.774 3.02141 230.483 3.02141H248.47C255.087 3.02141 261.045 5.78432 265.202 10.1888C265.223 10.2158 265.244 10.2361 265.265 10.2563L265.299 10.2901C268.126 13.3165 270.101 17.1265 270.856 21.3351C270.884 21.4972 270.918 21.6526 270.939 21.8147C270.946 21.8485 270.946 21.8823 270.953 21.9093C271.119 22.9834 271.202 24.0777 271.202 25.1924V42.7292C271.202 43.0399 271.175 43.3507 271.112 43.6479C271.022 44.1275 270.856 44.5801 270.627 44.9989Z" fill="#E3857C"/>
<path d="M271.247 25.3375C271.247 12.9921 259.905 2.19298 247.396 0.281214C231.562 -2.13866 217.004 11.4668 219.099 25.4103C220.934 37.6254 242.438 55.3423 248.32 44.4097C255.051 31.8998 271.247 37.6829 271.247 25.3375Z" fill="#F1B2B2"/>
<path d="M253.07 15.5464H241.555C241.264 15.5464 241.028 15.7761 241.028 16.0599C241.028 16.3436 241.264 16.5733 241.555 16.5733H253.07C253.361 16.5733 253.597 16.3436 253.597 16.0599C253.597 15.7761 253.361 15.5464 253.07 15.5464Z" fill="white"/>
<path d="M253.07 26.4968H241.555C241.264 26.4968 241.028 26.7265 241.028 27.0035C241.028 27.2872 241.264 27.5236 241.555 27.5236H253.07C253.361 27.5236 253.597 27.2872 253.597 27.0035C253.597 26.7265 253.361 26.4968 253.07 26.4968Z" fill="white"/>
<path d="M259.251 21.025H235.375C235.084 21.025 234.848 21.2547 234.848 21.5384C234.848 21.8222 235.084 22.0518 235.375 22.0518H259.251C259.542 22.0518 259.777 21.8222 259.777 21.5384C259.777 21.2547 259.542 21.025 259.251 21.025Z" fill="white"/>
<path d="M302.612 121.042L316.719 127.702L313.941 136.09L299.283 128.531C298.791 128.647 298.273 128.696 297.741 128.666C294.849 128.5 292.642 126.08 292.811 123.26C292.981 120.439 295.464 118.287 298.356 118.453C300.201 118.558 301.763 119.583 302.612 121.042Z" fill="#F1B2B2"/>
<path d="M362.771 112.783V112.776C361.44 110.742 359.286 109.236 356.674 108.756L354.706 108.392C349.856 117.214 345.373 126.226 344.535 137.156L323.971 129.286L323.042 128.935L321.178 126.563L318.345 126.894L317.846 126.057V126.05L317.014 124.679L311.042 124.861L310.986 124.989L310.98 124.996L308.069 131.9L308.063 131.907L307.668 132.853L307.39 133.508C307.39 133.508 307.217 135.372 307.64 136.926V136.94C307.848 137.716 308.208 138.412 308.811 138.743C309.31 139.013 310.439 138.264 311.042 138.595C311.319 138.75 311.035 139.966 311.333 140.128C311.527 140.236 312.926 139.507 313.127 139.615C314.721 140.486 316.522 141.513 318.442 142.621C319.419 143.188 320.423 143.769 321.449 144.377C332.132 150.639 344.833 158.516 345.886 159.057C345.962 159.097 346.038 159.131 346.114 159.165C348.027 160.09 350.285 160.32 352.468 159.671C352.925 159.536 353.362 159.367 353.771 159.165C354.526 158.807 355.212 158.34 355.808 157.793C357.179 156.564 358.115 154.902 358.44 153.031L364.108 119.106C364.489 116.822 363.956 114.593 362.771 112.783Z" fill="#3F3D56"/>
<path d="M256.334 144.208C255.682 141.627 253.735 139.715 251.463 139.134C250.555 138.891 249.592 138.864 248.636 139.094C247.611 139.337 246.689 139.844 245.948 140.567C244.056 139.702 241.423 139.573 238.499 139.573H233.649C227.913 139.573 223.257 144.302 223.257 149.706C221.76 154.462 223.61 157.725 227.012 159.164C228.862 159.948 231.169 160.191 233.649 159.839H238.499C240.183 160.15 241.791 159.88 243.225 159.164C245.754 157.907 247.742 155.273 248.622 152.037C249.253 152.253 249.911 152.375 250.583 152.375C251.026 152.375 251.477 152.321 251.92 152.219C253.555 151.828 254.913 150.767 255.745 149.24C256.562 147.734 256.77 145.95 256.334 144.208ZM251.054 147.93C250.576 148.815 249.876 149.49 249.031 149.902C249.003 150.173 248.962 150.443 248.92 150.706C249.232 150.828 249.086 150.821 248.823 150.76C248.366 150.652 247.555 150.362 248.13 150.227C248.442 150.152 248.747 150.044 249.031 149.902C249.183 148.538 249.156 147.106 248.892 145.653C248.892 143.586 248.255 142.222 247.167 141.316C247.687 140.877 248.29 140.567 248.962 140.404C249.301 140.323 249.641 140.283 249.973 140.283C250.396 140.283 250.798 140.31 251.172 140.377C252.786 140.654 253.923 141.58 254.435 143.627C254.789 145.045 251.712 146.721 251.054 147.93Z" fill="#D9D9D9"/>
<path d="M166.286 156.919C166.286 151.514 161.63 146.786 155.893 146.786H151.043C148.286 146.786 145.785 146.901 143.928 147.637C143.81 147.684 143.706 147.732 143.595 147.779C142.847 147.056 141.932 146.549 140.907 146.306C139.057 145.867 137.172 146.374 135.704 147.536C134.526 148.461 133.611 149.805 133.209 151.42C132.773 153.163 132.981 154.946 133.798 156.453C134.221 157.23 134.775 157.878 135.44 158.385C136.078 158.878 136.819 159.236 137.623 159.432C138.066 159.533 138.517 159.587 138.96 159.587C139.632 159.587 140.29 159.466 140.921 159.249C141.496 161.377 142.556 163.242 143.928 164.627C145.833 166.552 148.341 167.552 151.043 167.052H155.893C162.947 168.045 168.594 164.255 166.286 156.919ZM140.651 152.866C140.387 154.318 140.36 155.75 140.512 157.115C140.796 157.257 141.101 157.365 141.413 157.439C142.32 157.655 139.778 158.243 140.623 157.919C140.581 157.655 140.54 157.385 140.512 157.115C139.93 156.831 139.424 156.426 139.008 155.912C138.814 155.676 138.641 155.419 138.489 155.142C137.831 153.933 134.754 152.258 135.108 150.839C135.461 149.441 136.105 148.562 136.992 148.063C136.992 148.056 136.999 148.056 136.999 148.056C137.706 147.657 138.565 147.495 139.563 147.495C139.902 147.495 140.242 147.536 140.581 147.617C141.253 147.779 141.856 148.09 142.376 148.529C141.288 149.434 140.651 150.798 140.651 152.866Z" fill="#D9D9D9"/>
<path d="M14.5387 218.843H174.655C176.032 218.843 177.148 221.926 177.148 225.729L156.362 241.005C156.362 244.808 155.246 247.891 153.869 247.891H14.5387C13.1618 247.891 12.0456 244.808 12.0456 241.005V225.729C12.0456 221.926 13.1618 218.843 14.5387 218.843Z" fill="#D9D9D9"/>
<path d="M80.7251 150.474L83.5462 168.77L73.0512 171.8L70.7745 152.353C70.319 151.953 69.9147 151.482 69.5823 150.943C67.774 148.012 68.745 144.207 71.7509 142.444C74.7569 140.681 78.6596 141.628 80.4678 144.559C81.621 146.428 81.6395 148.651 80.7251 150.474Z" fill="#F1B2B2"/>
<path d="M86.5447 176.406C87.293 184.668 82.256 181.054 78.2928 189.12C76.7893 192.18 72.3273 191.727 70.6713 194.524C68.1493 198.78 70.4704 217.891 65.9945 220.241C61.4979 222.606 59.3847 215.769 55.8303 212.25C52.3521 208.805 48.2781 210.156 45.3058 206.312C42.3126 202.455 38.9245 199.016 35.9313 195.179C35.869 195.105 35.8136 195.024 35.7581 194.949C34.3863 184.425 29.9173 172.029 31.7881 166.435C34.2616 165.557 36.9291 164.969 39.0146 164.99C42.853 165.037 41.2317 167.077 44.5298 168.685C47.3012 170.036 50.7239 177.102 53.3984 178.676C55.3037 179.791 60.0082 188.647 62.4679 187.883C66.4934 186.634 70.4566 168.563 69.5143 165.253C68.7175 162.49 64.7405 159.031 64.6296 156.248C64.6227 156.147 64.6227 156.039 64.6296 155.938C68.6274 157.336 76.0549 153.769 80.1497 155.059C83.0736 155.985 86.524 159.464 86.7249 162.429C86.9327 165.469 86.2676 173.359 86.5447 176.406Z" fill="#F1B2B2"/>
<path d="M133.666 145.263C132.939 144.446 131.851 144.067 130.756 144.256L98.6147 149.857C95.7116 150.37 92.6838 149.87 90.1133 148.458L85.3465 145.844L76.4224 140.946L74.6903 140.001L67.4291 136.015L65.1496 134.765C64.2766 134.286 63.2442 134.238 62.3296 134.644C61.4151 135.042 60.7707 135.826 60.5629 136.778L58.3111 147.04L58.1448 147.776L56.8768 153.565L53.7035 167.988L53.2047 170.278L52.983 171.271L51.3616 178.668L51.0568 180.033L46.7542 199.63L46.38 201.325C46.1721 202.278 46.4216 203.237 47.0728 203.953C47.1422 204.041 47.2253 204.122 47.3154 204.203C48.1399 204.946 49.2692 205.196 50.3362 204.879L51.2369 204.608L58.0201 202.602L73.5609 198.009L76.8866 197.022L80.9745 195.813C81.4041 195.685 81.8406 195.624 82.2771 195.624C83.4203 195.624 84.5427 196.043 85.388 196.833L105.481 215.464L106.368 216.288C107.144 217.011 108.232 217.288 109.271 217.032C110.165 216.815 110.892 216.248 111.294 215.464C111.37 215.329 111.433 215.187 111.481 215.039L117.1 198.556L118.063 195.732L121.195 186.545L121.444 185.815C135.187 194.373 132.959 167.354 134.269 148.215C134.623 147.188 134.394 146.08 133.666 145.263Z" fill="#D9D9D9"/>
<path d="M129.509 148.641C128.782 147.823 127.694 147.445 126.599 147.634L94.4575 153.234C91.5545 153.748 88.5267 153.248 85.9562 151.836L81.1893 149.222L72.2653 144.324L70.5331 143.378L63.2719 139.393L60.9924 138.143C60.1194 137.663 59.0871 137.616 58.1725 138.021C57.2579 138.42 56.6135 139.203 56.4057 140.156L54.1539 150.417L53.9876 151.154L52.7197 156.943L49.5464 171.366L49.0475 173.656L48.8258 174.649L47.2045 182.046L46.8996 183.41L42.597 203.007L42.2228 204.703C42.015 205.656 42.2644 206.615 42.9157 207.331C42.985 207.419 43.0681 207.5 43.1582 207.581C43.9827 208.324 45.1121 208.574 46.1791 208.256L47.0798 207.986L53.8629 205.98L69.4037 201.386L72.7295 200.4L76.8174 199.191C77.2469 199.062 77.6834 199.002 78.1199 199.002C79.2631 199.002 80.3856 199.42 81.2309 200.211L101.324 218.842L102.211 219.666C102.987 220.389 104.074 220.666 105.114 220.409C106.008 220.193 106.735 219.626 107.137 218.842C107.213 218.707 107.275 218.565 107.324 218.416L112.943 201.933L113.906 199.11L117.038 189.922L117.287 189.193C131.03 197.751 128.802 170.731 130.112 151.593C130.465 150.566 130.237 149.458 129.509 148.641Z" fill="#E3857C"/>
<path d="M38.7954 207.839L39.4535 235.001L78.9379 233.941L70.9588 203.878L38.7954 207.839Z" fill="#F1B2B2"/>
<path d="M85.5817 301.258C86.0598 299.056 84.5216 300.839 83.4823 299.907L83.3992 299.826C82.2698 298.603 80.8495 298.056 80.8702 296.536C80.891 295.016 78.175 296.374 76.6507 294.888C76.3251 294.57 75.3966 293.955 74.1287 293.185C70.1863 290.794 63.0014 286.889 60.8466 285.721C60.4447 285.505 60.2161 285.383 60.2161 285.383C60.2161 285.383 60.2092 285.498 60.1884 285.721C60.0706 287.133 59.5856 292.854 58.9967 299.907C58.962 300.353 58.9274 300.805 58.8858 301.258H33.3609C33.3886 300.799 33.4024 300.346 33.4093 299.907C33.4509 297.799 33.2708 295.833 32.7719 294.192C31.8712 291.24 31.0675 288.43 30.437 285.721C28.1297 275.851 28.1575 267.299 34.5734 257.983C35.7581 256.267 35.9868 250.802 35.9868 250.802C35.9868 250.802 38.1693 252.91 38.7305 253.437C38.5919 253.295 38.3148 253.025 37.8575 252.579C35.2662 250.053 35.3494 249.289 36.6796 247.891C36.9152 247.648 37.1854 247.384 37.4903 247.087C39.5203 245.108 37.4903 247.087 36.4718 245.925C35.4602 244.756 37.9961 241.635 37.9961 241.635L37.033 236.934L36.4718 234.205L39.4164 233.705L47.3012 232.36L76.9833 227.307L77.5445 228.706L82.5747 241.183C83.8149 241.879 85.1106 244.615 86.2746 247.891C88.4501 254.004 90.1546 261.983 90.1546 261.983L122.955 299.907L123.273 300.278C123.55 300.596 123.807 300.927 124.049 301.258H85.5817Z" fill="#2F2E41"/>
<path d="M42.2641 289.098H37.4141V301.258H42.2641V289.098Z" fill="#E3857C"/>
<path d="M12.8176 285.721H66.8606C70.8785 285.721 74.1357 288.896 74.1357 292.814C74.1357 296.731 70.8785 299.907 66.8606 299.907H12.8176C8.79968 299.907 5.54254 296.731 5.54254 292.814C5.54254 288.896 8.79968 285.721 12.8176 285.721Z" fill="#D9D9D9"/>
<path d="M8.6604 299.907C5.40783 299.907 2.77109 297.336 2.77109 294.165V225.936C2.77109 222.765 5.40782 220.194 8.66039 220.194C11.913 220.194 14.5497 222.765 14.5497 225.936C32.4369 239.282 25.1667 265.845 14.5497 294.165C14.5497 297.336 11.913 299.907 8.6604 299.907Z" fill="#D9D9D9"/>
<path d="M79.6785 224.923C78.5366 233.088 70.5397 225.896 62.4956 224.538C55.0127 223.281 46.1164 236.008 38.1069 237.082C32.9313 237.778 37.0122 233.59 38.7998 215.465C39.0285 213.135 36.1115 197.685 35.7581 194.949C34.3863 184.425 29.9173 172.029 31.7881 166.435C32.1068 165.462 32.6195 164.699 33.3747 164.186C36.9291 161.761 38.5157 159.808 40.9061 156.323C42.9293 153.364 44.3981 151.08 48.1673 150.844C51.7216 150.621 55.7472 151.378 59.1768 152.107C62.9252 152.911 58.671 152.627 59.5856 154.667C60.029 155.667 60.7912 159.356 61.6642 160.747C64.3141 160.006 67.1646 160.836 68.9635 162.873C71.0563 165.243 72.9415 167.42 74.2396 170.799C76.1934 175.852 71.2672 184.844 73.4428 189.795C75.4036 194.267 70.609 203.799 72.7499 207.359C75.4659 211.892 81.7571 210.061 79.6785 224.923Z" fill="#F1B2B2"/>
<path d="M95.722 158.681L95.5468 160.021L118.955 162.93L119.131 161.59L95.722 158.681Z" fill="white"/>
<path d="M94.4447 165.32L94.2695 166.66L117.678 169.569L117.853 168.229L94.4447 165.32Z" fill="white"/>
<path d="M93.7518 170.725L93.5767 172.064L116.985 174.973L117.16 173.633L93.7518 170.725Z" fill="white"/>
<path d="M59.6918 151.499C67.6573 151.499 74.1146 145.203 74.1146 137.437C74.1146 129.67 67.6573 123.375 59.6918 123.375C51.7262 123.375 45.2689 129.67 45.2689 137.437C45.2689 145.203 51.7262 151.499 59.6918 151.499Z" fill="#F1B2B2"/>
<path d="M128.898 151.531L113.257 158.454L116.067 167.717L132.336 159.824C132.872 159.964 133.437 160.031 134.021 160.012C137.194 159.907 139.68 157.314 139.573 154.22C139.465 151.126 136.805 148.703 133.632 148.807C131.608 148.874 129.868 149.955 128.898 151.531Z" fill="#F1B2B2"/>
<path d="M115.475 156.646L109.446 159.555L98.6729 161.616L84.0682 167.462L81.8532 168.345L71.6319 166.452L64.5546 165.134L62.2222 164.702L53.7323 163.124L52.0441 163.021C51.5821 162.892 51.0832 162.77 50.5357 162.66C48.9051 162.325 46.9519 162.071 44.95 161.973C44.3473 161.944 43.7364 161.928 43.1304 161.932C37.9508 161.945 32.9827 163.138 32.8606 166.741C32.7654 169.687 33.3678 172.502 34.5277 175.041C34.7043 175.426 34.8891 175.799 35.0893 176.171C37.544 180.725 41.8534 184.222 47.0956 185.644C48.2388 185.953 49.4228 186.159 50.6416 186.264L50.8946 186.24L51.8421 186.159L53.3977 186.024L56.2524 185.773L78.6643 183.811L81.3431 183.577L83.8272 183.357L83.8841 183.331C87.0557 182.005 95.8113 178.343 104.649 174.553C112.749 171.076 116.167 170.648 118.577 169.727C119.056 169.545 119.493 169.348 119.922 169.1C120.307 168.872 127.338 164.194 127.377 164.1C127.504 163.811 127.364 163.198 127.045 162.39C126.139 160.064 123.816 156.199 122.644 154.301L122.109 153.448L115.475 156.646Z" fill="#F1B2B2"/>
<path d="M15.721 103.325C7.03853 103.325 0 110.188 0 118.653V285.928C0 289.157 1.03235 292.164 2.79225 294.636C4.39965 296.906 6.62374 298.73 9.22196 299.878H9.24277C11.2243 300.763 13.4068 301.256 15.721 301.256H134.152V292.015H16.4138C14.2106 299.905 12.7486 299.675 11.3837 299.25C9.74854 298.75 8.23811 297.966 6.92166 296.953C6.90779 296.953 6.90779 296.946 6.90779 296.94C5.14794 295.615 3.73452 293.906 2.77144 291.927C1.88456 290.11 1.38572 288.077 1.38572 285.928V175.383C1.38572 136.333 33.8541 104.676 73.9059 104.676H210.366V103.325L15.721 103.325Z" fill="#3F3D56"/>
<path d="M76.1383 129.901C76.1314 131.347 76.1245 134.191 74.8427 134.907L74.5101 134.752C74.2884 134.617 74.0113 134.407 73.7133 134.171C72.7987 133.441 71.6347 132.435 70.838 132.3C70.7964 131.084 70.8311 129.868 70.9558 128.658C70.9904 128.368 71.025 128.077 71.0666 127.787C70.9488 127.983 70.838 128.179 70.7271 128.381C70.0689 129.584 69.5285 130.854 69.1335 132.158C67.8171 132.171 66.0572 131.996 65.3436 133.07C64.3112 134.63 65.787 137.954 63.2719 139.393C62.7384 139.697 62.0248 139.92 61.0756 140.021C62.0733 140.176 63.3412 140.649 63.9787 141.892C65.2951 144.459 66.4175 147.431 65.8217 150.167C65.7316 150.573 65.6069 150.971 65.4406 151.363C64.429 153.741 62.0872 155.268 60.3688 157.227C60.3342 157.26 60.3065 157.294 60.2788 157.328C58.9554 158.868 58.512 160.131 58.6506 161.327C58.9 163.523 61.0964 165.482 63.362 168.427C64.2004 169.521 61.6992 175.203 62.4128 176.378C63.1403 177.553 63.5283 179.04 62.9532 180.296C62.3366 181.634 60.9509 182.228 59.4127 182.458C55.02 179.519 51.2439 175.777 49.5464 171.366C48.0775 167.556 48.1537 163.259 50.7173 158.544C48.2576 162.692 47.3292 167.677 48.1329 172.406C48.1537 172.575 48.1814 172.737 48.2161 172.899C48.3408 173.534 48.5486 174.108 48.8258 174.649C50.066 177.06 52.6435 178.655 54.5419 180.877C53.7451 181.661 52.4425 182.856 51.1746 183.958C50.0937 184.903 49.0267 185.768 48.327 186.248C47.8558 185.822 47.3639 184.775 46.8996 183.41C46.7126 182.863 46.5255 182.262 46.3523 181.634C45.2645 177.83 44.3776 172.926 44.149 171.42C43.5185 172.575 43.3384 175.838 43.4284 179.195C43.4423 179.688 43.4631 180.181 43.4838 180.668C43.6848 184.897 38.3151 186.977 35.4882 183.768C34.9062 183.1 34.3104 182.35 33.7007 181.505C33.6244 178.276 34.0956 175.034 35.1349 171.974C35.1626 171.886 35.1765 171.845 35.1765 171.832C35.0379 172.028 33.5829 175.554 32.4396 178.27C31.8507 179.661 31.345 180.837 31.1302 181.249C31.345 179.999 31.7537 178.459 32.1833 176.952C33.1602 173.568 34.2619 170.386 33.576 171.264C32.8762 172.163 32.2457 173.122 31.7052 174.122C30.6244 176.088 29.8692 178.229 29.4881 180.431C29.4534 180.627 29.4188 180.823 29.398 181.026C28.7675 180.87 28.1578 180.654 27.5758 180.37C25.7397 179.445 24.7489 177.506 24.645 175.486C24.4787 172.325 25.9129 169.461 28.8645 169.906C29.987 170.075 30.4581 169.427 30.5205 168.366C30.6729 166.171 29.1139 162.199 28.2063 160.064C27.8183 159.152 27.4164 158.206 27.07 157.254C28.9892 154.869 30.0078 151.789 29.786 148.762C29.1278 151.019 27.9569 153.126 26.3841 154.903C26.0446 153.309 26.0169 151.714 26.6197 150.194C28.6359 145.141 32.9385 147.283 35.9802 142.743C39.5346 137.44 38.4884 134.671 40.5531 128.658C41.44 126.064 43.5393 123.889 46.1445 122.862C48.7496 121.842 52.4633 115.35 62.3089 122.477C62.4682 122.335 62.6276 122.2 62.7939 122.079C65.5861 120.025 69.0227 121.336 72.7018 121.802C76.5957 122.295 75.3069 121.572 77.4063 124.808C78.1962 126.031 76.1522 128.456 76.1383 129.901Z" fill="#2F2E41"/>
<path d="M160.494 82.7688C160.494 82.7643 160.492 82.762 160.487 82.762C159.718 81.9379 158.693 81.3434 157.536 81.0935H157.529C157.127 81.0057 156.718 80.9584 156.288 80.9584H120.613C117.461 80.9584 114.89 83.4646 114.89 86.5383V121.321C114.89 124.395 117.461 126.895 120.613 126.895H156.288C159.441 126.895 162.004 124.395 162.004 121.321V86.5383C162.004 85.0859 161.436 83.7618 160.494 82.7688ZM161.332 121.321C161.332 124.037 159.074 126.239 156.288 126.239H120.613C117.828 126.239 115.569 124.037 115.569 121.321V103.785C115.569 103.629 115.569 103.481 115.576 103.325C115.597 102.339 115.68 101.366 115.832 100.407C115.853 100.245 115.888 100.089 115.915 99.9273C116.671 95.7187 118.645 91.9088 121.472 88.8824L121.507 88.8486C125.664 84.4036 131.65 81.6137 138.302 81.6137H156.288C159.074 81.6137 161.332 83.8226 161.332 86.5383V121.321Z" fill="#E3857C"/>
<path d="M115.524 103.93C115.524 91.5843 126.866 80.7852 139.375 78.8734C155.209 76.4536 169.767 84.6547 167.672 98.5983C165.837 110.813 144.332 133.935 138.45 123.002C131.72 110.492 115.524 116.275 115.524 103.93Z" fill="#F1B2B2"/>
<path d="M145.216 94.1387H133.701C133.41 94.1387 133.175 94.3684 133.175 94.6521C133.175 94.9358 133.41 95.1655 133.701 95.1655H145.216C145.507 95.1655 145.743 94.9358 145.743 94.6521C145.743 94.3684 145.507 94.1387 145.216 94.1387Z" fill="white"/>
<path d="M145.216 105.089H133.701C133.41 105.089 133.175 105.319 133.175 105.596C133.175 105.879 133.41 106.116 133.701 106.116H145.216C145.507 106.116 145.743 105.879 145.743 105.596C145.743 105.319 145.507 105.089 145.216 105.089Z" fill="white"/>
<path d="M151.397 99.6173H127.521C127.23 99.6173 126.994 99.847 126.994 100.131C126.994 100.414 127.23 100.644 127.521 100.644H151.397C151.688 100.644 151.923 100.414 151.923 100.131C151.923 99.847 151.688 99.6173 151.397 99.6173Z" fill="white"/>
<path d="M35.2537 29.1239C34.4895 29.1239 33.868 29.7299 33.868 30.475V51.4165C33.868 52.1616 34.4895 52.7676 35.2537 52.7676C36.018 52.7676 36.6395 52.1616 36.6395 51.4165V30.475C36.6395 29.7299 36.018 29.1239 35.2537 29.1239Z" fill="#3F3D56"/>
<path d="M48.8345 49.3028C53.6037 49.3028 57.4698 45.6128 57.4698 41.0609C57.4698 36.509 53.6037 32.8189 48.8345 32.8189C44.0654 32.8189 40.1992 36.509 40.1992 41.0609C40.1992 45.6128 44.0654 49.3028 48.8345 49.3028Z" fill="#F1B2B2"/>
<path d="M118.06 38.2413H71.5797C69.9851 38.2413 68.6877 36.9763 68.6877 35.4216C68.6877 33.8669 69.9851 32.602 71.5797 32.602H118.06C119.655 32.602 120.952 33.8669 120.952 35.4216C120.952 36.9763 119.655 38.2413 118.06 38.2413Z" fill="#D9D9D9"/>
<path d="M154.334 47.7846H71.5797C69.9851 47.7846 68.6877 46.5196 68.6877 44.9649C68.6877 43.4103 69.9851 42.1453 71.5797 42.1453H154.334C155.928 42.1453 157.226 43.4103 157.226 44.9649C157.226 46.5196 155.928 47.7846 154.334 47.7846Z" fill="#D9D9D9"/>
<path d="M150.073 283.356C149.309 283.356 148.687 283.962 148.687 284.707V305.649C148.687 306.394 149.309 307 150.073 307C150.837 307 151.459 306.394 151.459 305.649V284.707C151.459 283.962 150.837 283.356 150.073 283.356Z" fill="#3F3D56"/>
<path d="M163.654 303.535C168.423 303.535 172.289 299.845 172.289 295.293C172.289 290.741 168.423 287.051 163.654 287.051C158.885 287.051 155.019 290.741 155.019 295.293C155.019 299.845 158.885 303.535 163.654 303.535Z" fill="#F1B2B2"/>
<path d="M232.879 292.474H186.399C184.804 292.474 183.507 291.209 183.507 289.654C183.507 288.099 184.804 286.834 186.399 286.834H232.879C234.474 286.834 235.771 288.099 235.771 289.654C235.771 291.209 234.474 292.474 232.879 292.474Z" fill="#D9D9D9"/>
<path d="M269.153 302.017H186.399C184.804 302.017 183.507 300.752 183.507 299.197C183.507 297.643 184.804 296.378 186.399 296.378H269.153C270.748 296.378 272.045 297.643 272.045 299.197C272.045 300.752 270.748 302.017 269.153 302.017Z" fill="#D9D9D9"/>
<path d="M69.9718 116.225C71.5898 116.225 72.9014 114.917 72.9014 113.305C72.9014 111.692 71.5898 110.385 69.9718 110.385C68.3538 110.385 67.0421 111.692 67.0421 113.305C67.0421 114.917 68.3538 116.225 69.9718 116.225Z" fill="#3F3D56"/>
<path d="M80.0923 116.225C81.7103 116.225 83.0219 114.917 83.0219 113.305C83.0219 111.692 81.7103 110.385 80.0923 110.385C78.4743 110.385 77.1627 111.692 77.1627 113.305C77.1627 114.917 78.4743 116.225 80.0923 116.225Z" fill="#3F3D56"/>
<path d="M90.2128 116.225C91.8308 116.225 93.1424 114.917 93.1424 113.305C93.1424 111.692 91.8308 110.385 90.2128 110.385C88.5948 110.385 87.2832 111.692 87.2832 113.305C87.2832 114.917 88.5948 116.225 90.2128 116.225Z" fill="#3F3D56"/>
<path d="M273.25 58.6076C274.868 58.6076 276.18 57.3003 276.18 55.6876C276.18 54.0749 274.868 52.7676 273.25 52.7676C271.632 52.7676 270.321 54.0749 270.321 55.6876C270.321 57.3003 271.632 58.6076 273.25 58.6076Z" fill="#3F3D56"/>
<path d="M283.371 58.6076C284.989 58.6076 286.3 57.3003 286.3 55.6876C286.3 54.0749 284.989 52.7676 283.371 52.7676C281.753 52.7676 280.441 54.0749 280.441 55.6876C280.441 57.3003 281.753 58.6076 283.371 58.6076Z" fill="#3F3D56"/>
<path d="M293.491 58.6076C295.109 58.6076 296.421 57.3003 296.421 55.6876C296.421 54.0749 295.109 52.7676 293.491 52.7676C291.873 52.7676 290.562 54.0749 290.562 55.6876C290.562 57.3003 291.873 58.6076 293.491 58.6076Z" fill="#3F3D56"/>
<path d="M184.612 173.985C184.496 174.371 184.915 174.696 185.274 174.498C187.78 173.118 190.844 171.771 193.575 171.044C194.013 170.928 194.027 170.331 193.597 170.19L189.977 169.004L203.803 152.03L202.861 151.301L189.035 168.275L187.03 165.105C186.792 164.729 186.199 164.877 186.182 165.319C186.074 168.078 185.423 171.292 184.612 173.985Z" fill="#3F3D56"/>
<path d="M204.246 207.392C204.624 207.553 205.008 207.189 204.853 206.817C203.769 204.217 202.791 201.082 202.401 198.348C202.339 197.91 201.733 197.82 201.535 198.217L199.866 201.566L184.369 186.025L183.507 186.842L199.004 202.384L195.522 203.917C195.109 204.099 195.185 204.691 195.632 204.765C198.424 205.222 201.611 206.263 204.246 207.392Z" fill="#3F3D56"/>
</g>
<defs>
<clipPath id="clip0_55_657">
<rect width="384" height="307" fill="white"/>
</clipPath>
</defs>
</svg>
